<svg xmlns="http://www.w3.org/2000/svg" viewBox="0 0 120 120">
  <defs>
    <linearGradient id="creativeHair" x1="0" x2="1" y1="0" y2="1">
      <stop offset="0" stop-color="#ff6f61"/>
      <stop offset="1" stop-color="#ff9472"/>
    </linearGradient>
  </defs>
  <circle cx="60" cy="60" r="56" fill="#fef5f1" stroke="#222" stroke-width="4"/>
  <path d="M60 18c-20 0-32 12-34 32l-2 16c0 4 4 6 8 6 12-2 24-2 54 0 4 0 8-2 8-6l-2-16c-2-20-14-32-32-32z" fill="url(#creativeHair)" stroke="#222" stroke-width="4" stroke-linejoin="round"/>
  <circle cx="46" cy="64" r="6" fill="#222"/>
  <circle cx="74" cy="64" r="6" fill="#222"/>
  <path d="M44 86c10 6 22 6 32 0" fill="none" stroke="#c0392b" stroke-width="4" stroke-linecap="round"/>
  <path d="M32 48c8-12 24-14 28-14s20 2 28 14" fill="none" stroke="#222" stroke-width="5" stroke-linecap="round"/>
  <rect x="32" y="98" width="56" height="12" rx="6" fill="#ffd166" stroke="#222" stroke-width="3"/>
</svg>
