<svg xmlns="http://www.w3.org/2000/svg" xmlns:xlink="http://www.w3.org/1999/xlink" width="913" height="898" viewBox="0 0 913 898">
<path d="M 540,429 L 535,431 L 530,436 L 528,440 L 528,451 L 530,455 L 535,460 L 545,462 L 551,460 L 556,456 L 559,450 L 559,441 L 557,436 L 552,431 L 547,429 Z M 314,429 L 307,432 L 303,436 L 301,442 L 301,449 L 304,456 L 307,459 L 315,462 L 319,462 L 326,459 L 331,454 L 332,440 L 331,437 L 325,431 L 320,429 Z" fill="#f8fbfa" stroke="#222" fill-rule="evenodd" stroke-width="4" stroke-linejoin="round" stroke-linecap="round" />
<path d="M 404,773 L 405,776 L 408,779 L 424,783 L 431,783 L 432,784 L 458,784 L 459,783 L 472,782 L 484,779 L 487,774 L 486,770 L 482,767 L 479,767 L 472,770 L 448,771 L 447,772 L 420,770 L 416,768 L 410,767 L 407,768 Z M 405,771 L 410,767 L 419,770 L 427,770 L 428,771 L 442,772 L 443,773 L 457,772 L 463,770 L 474,770 L 478,768 L 483,768 L 486,771 L 486,776 L 483,779 L 479,779 L 471,782 L 465,782 L 464,783 L 442,783 L 441,784 L 440,783 L 437,784 L 436,783 L 425,783 L 409,779 L 405,776 Z M 325,578 L 325,589 L 331,607 L 342,626 L 352,638 L 368,652 L 389,665 L 394,666 L 396,668 L 408,672 L 416,673 L 417,674 L 422,674 L 412,673 L 408,671 L 405,671 L 392,666 L 386,662 L 384,662 L 362,647 L 347,632 L 333,611 L 327,596 L 327,592 L 325,588 L 325,578 L 330,573 L 338,572 L 343,576 L 345,580 L 345,586 L 351,602 L 359,615 L 375,632 L 397,646 L 407,650 L 413,651 L 416,653 L 424,654 L 425,655 L 433,655 L 434,656 L 457,656 L 458,655 L 471,654 L 478,651 L 485,650 L 498,644 L 516,632 L 532,615 L 542,598 L 546,586 L 547,578 L 552,573 L 554,572 L 562,573 L 567,579 L 567,585 L 559,609 L 549,626 L 528,648 L 520,654 L 499,666 L 473,674 L 466,674 L 465,675 L 458,675 L 457,676 L 430,676 L 429,675 L 424,675 L 440,676 L 441,677 L 460,676 L 461,675 L 474,674 L 486,671 L 499,666 L 511,659 L 513,659 L 526,650 L 543,634 L 555,617 L 561,605 L 567,585 L 567,579 L 565,575 L 561,572 L 553,572 L 548,576 L 544,593 L 536,609 L 526,622 L 513,634 L 503,641 L 490,648 L 487,648 L 484,650 L 474,652 L 470,654 L 455,655 L 454,656 L 435,656 L 434,655 L 420,654 L 410,650 L 407,650 L 387,640 L 372,629 L 360,616 L 348,595 L 348,592 L 345,585 L 345,580 L 343,576 L 338,572 L 331,572 Z M 760,447 L 757,447 L 744,455 L 744,457 L 751,464 L 761,480 L 761,483 L 764,490 L 764,496 L 766,502 L 766,511 L 765,512 L 764,523 L 760,535 L 751,550 L 735,566 L 716,576 L 705,579 L 695,580 L 693,582 L 690,591 L 688,593 L 688,595 L 685,599 L 682,607 L 672,623 L 672,634 L 671,635 L 671,642 L 668,655 L 669,657 L 810,657 L 812,654 L 822,614 L 823,595 L 824,594 L 824,587 L 825,586 L 825,564 L 824,563 L 823,548 L 822,547 L 822,542 L 821,541 L 820,531 L 818,527 L 818,523 L 808,499 L 796,480 L 774,457 Z M 129,448 L 112,461 L 94,480 L 79,504 L 79,506 L 74,516 L 74,519 L 71,526 L 70,534 L 68,538 L 68,546 L 67,547 L 67,555 L 66,556 L 66,564 L 65,565 L 66,595 L 67,596 L 69,619 L 71,624 L 73,638 L 76,645 L 76,650 L 79,655 L 79,657 L 223,657 L 220,624 L 214,616 L 210,607 L 208,605 L 207,601 L 205,599 L 205,597 L 201,590 L 201,588 L 199,586 L 198,581 L 181,578 L 161,569 L 153,563 L 141,551 L 131,534 L 127,520 L 127,494 L 131,480 L 133,478 L 134,474 L 142,463 L 148,457 L 148,455 L 134,447 Z M 325,409 L 317,411 L 303,423 L 297,432 L 297,434 L 294,439 L 294,442 L 297,433 L 301,426 L 313,414 L 320,410 L 325,410 L 326,409 L 340,410 L 349,415 L 359,425 L 360,428 L 363,431 L 369,447 L 369,454 L 370,455 L 369,479 L 367,483 L 366,490 L 361,500 L 345,516 L 343,516 L 338,519 L 322,519 L 318,516 L 314,515 L 303,505 L 295,491 L 291,474 L 291,453 L 292,452 L 293,444 L 291,451 L 291,475 L 295,492 L 298,496 L 299,500 L 311,513 L 322,519 L 339,519 L 347,515 L 357,506 L 362,499 L 366,490 L 366,487 L 369,481 L 369,473 L 370,472 L 369,446 L 362,429 L 351,416 L 341,410 Z M 748,412 L 742,407 L 735,407 L 718,414 L 710,421 L 709,424 L 710,432 L 717,438 L 725,438 L 743,429 L 748,425 L 750,421 L 750,417 Z M 749,415 L 749,422 L 744,428 L 724,438 L 718,438 L 714,436 L 710,431 L 710,427 L 709,426 L 712,419 L 725,411 L 730,410 L 736,407 L 741,407 Z M 143,412 L 142,414 L 142,422 L 147,428 L 169,439 L 176,438 L 180,434 L 182,425 L 181,424 L 181,420 L 177,416 L 157,407 L 149,407 Z M 143,413 L 150,407 L 156,407 L 176,416 L 181,421 L 181,431 L 180,433 L 175,438 L 167,438 L 157,432 L 155,432 L 148,428 L 143,423 L 142,421 Z M 645,397 L 642,397 L 639,395 L 625,391 L 620,388 L 611,385 L 601,379 L 597,378 L 595,376 L 593,376 L 556,351 L 540,337 L 521,317 L 507,298 L 495,275 L 493,273 L 490,275 L 477,292 L 454,315 L 436,330 L 411,347 L 390,358 L 388,360 L 384,361 L 382,363 L 380,363 L 373,367 L 371,367 L 360,373 L 357,373 L 344,379 L 338,380 L 333,383 L 329,383 L 322,386 L 315,387 L 312,389 L 308,389 L 300,392 L 295,392 L 301,392 L 308,389 L 313,389 L 319,386 L 323,386 L 329,383 L 336,382 L 341,379 L 345,379 L 350,376 L 355,375 L 365,370 L 367,370 L 371,367 L 380,364 L 410,348 L 435,331 L 451,318 L 480,289 L 490,275 L 493,273 L 495,275 L 505,295 L 516,311 L 525,322 L 546,343 L 557,352 L 581,369 L 598,379 L 613,385 L 617,388 L 627,391 L 629,393 Z M 162,323 L 161,357 L 162,358 L 163,384 L 165,386 L 180,391 L 183,393 L 187,392 L 187,386 L 194,378 L 198,378 L 199,377 L 231,377 L 232,376 L 242,376 L 243,375 L 256,375 L 263,373 L 276,372 L 285,369 L 290,369 L 291,368 L 295,368 L 298,366 L 303,366 L 311,363 L 315,363 L 337,356 L 340,354 L 355,349 L 362,345 L 364,345 L 376,338 L 382,336 L 407,321 L 429,305 L 450,286 L 470,263 L 484,242 L 489,237 L 491,236 L 500,236 L 507,242 L 511,254 L 525,281 L 545,308 L 570,332 L 574,334 L 582,341 L 603,354 L 623,364 L 625,364 L 627,366 L 643,372 L 646,372 L 652,375 L 656,375 L 663,378 L 667,378 L 675,381 L 691,382 L 698,384 L 705,390 L 707,394 L 714,390 L 716,390 L 718,388 L 723,387 L 725,385 L 726,363 L 727,362 L 727,353 L 728,352 L 727,336 L 726,335 L 726,322 L 724,316 L 723,304 L 721,299 L 721,295 L 717,279 L 707,252 L 705,250 L 704,246 L 696,232 L 696,230 L 679,204 L 662,183 L 645,166 L 631,154 L 609,138 L 591,127 L 560,112 L 557,112 L 554,110 L 537,104 L 531,103 L 528,101 L 524,101 L 516,98 L 510,98 L 502,95 L 494,95 L 483,92 L 469,92 L 468,91 L 455,91 L 454,90 L 431,90 L 430,91 L 419,91 L 418,92 L 405,92 L 404,93 L 398,93 L 381,97 L 375,97 L 368,100 L 360,101 L 357,103 L 354,103 L 348,106 L 345,106 L 339,109 L 331,111 L 298,127 L 263,150 L 243,167 L 229,181 L 215,197 L 195,226 L 182,251 L 182,253 L 175,268 L 171,280 L 168,296 L 166,300 L 166,305 L 165,306 L 163,322 Z" fill="#c17e3b" stroke="#222" fill-rule="evenodd" stroke-width="4" stroke-linejoin="round" stroke-linecap="round" />
<path d="M 406,771 L 406,776 L 409,778 L 425,782 L 436,782 L 437,783 L 440,782 L 441,783 L 442,782 L 464,782 L 465,781 L 471,781 L 479,778 L 483,778 L 485,776 L 485,771 L 483,769 L 478,769 L 474,771 L 463,771 L 457,773 L 447,773 L 446,774 L 434,773 L 427,771 L 419,771 L 411,768 Z M 394,741 L 394,744 L 399,749 L 405,752 L 422,757 L 429,757 L 436,759 L 454,759 L 461,757 L 471,757 L 476,754 L 481,754 L 490,750 L 496,744 L 496,741 L 485,742 L 479,744 L 460,744 L 459,745 L 412,744 L 411,743 Z M 716,466 L 714,466 L 713,503 L 712,504 L 712,510 L 710,517 L 710,527 L 706,539 L 706,544 L 704,550 L 705,553 L 712,551 L 720,546 L 732,534 L 738,523 L 739,514 L 740,513 L 740,501 L 738,496 L 738,492 L 731,479 L 722,470 L 719,469 Z M 177,466 L 171,469 L 164,475 L 158,483 L 151,500 L 151,513 L 154,521 L 154,525 L 160,535 L 170,545 L 182,552 L 187,553 L 188,550 L 184,536 L 184,529 L 181,517 L 181,506 L 180,505 L 180,496 L 179,495 L 179,466 Z M 539,428 L 533,431 L 529,435 L 526,446 L 527,447 L 527,451 L 530,457 L 537,462 L 546,463 L 553,460 L 558,455 L 560,451 L 560,440 L 557,434 L 554,431 L 547,428 Z M 540,428 L 547,428 L 552,430 L 558,436 L 560,441 L 560,450 L 557,456 L 551,461 L 545,463 L 535,461 L 529,455 L 527,451 L 527,440 L 529,436 L 535,430 Z M 313,428 L 308,430 L 302,436 L 300,441 L 300,450 L 302,455 L 307,460 L 314,463 L 320,463 L 328,459 L 331,456 L 334,448 L 334,443 L 331,435 L 327,431 L 320,428 Z M 314,428 L 320,428 L 325,430 L 332,437 L 333,440 L 332,454 L 326,460 L 319,463 L 315,463 L 307,460 L 303,456 L 300,449 L 300,442 L 302,436 L 307,431 Z M 748,415 L 741,408 L 736,408 L 730,411 L 725,412 L 713,419 L 710,426 L 711,427 L 711,431 L 714,435 L 718,437 L 724,437 L 744,427 L 748,422 Z M 144,413 L 143,421 L 148,427 L 167,437 L 175,437 L 180,431 L 180,421 L 176,417 L 156,408 L 150,408 Z M 493,274 L 491,275 L 481,289 L 464,307 L 435,332 L 410,349 L 380,365 L 371,368 L 367,371 L 350,377 L 345,380 L 341,380 L 333,384 L 329,384 L 323,387 L 319,387 L 313,390 L 308,390 L 301,393 L 294,393 L 287,396 L 281,396 L 280,397 L 270,398 L 269,399 L 262,399 L 261,400 L 247,400 L 246,401 L 228,402 L 227,403 L 213,403 L 212,402 L 209,404 L 208,424 L 207,425 L 206,445 L 205,446 L 205,460 L 204,461 L 204,486 L 205,487 L 205,504 L 207,511 L 207,520 L 208,521 L 208,526 L 210,530 L 210,536 L 213,543 L 213,547 L 218,564 L 226,584 L 228,586 L 229,590 L 234,598 L 234,600 L 248,622 L 262,640 L 281,659 L 297,672 L 307,679 L 315,683 L 318,686 L 337,696 L 339,696 L 341,698 L 343,698 L 355,704 L 358,704 L 364,707 L 367,707 L 377,711 L 381,711 L 388,714 L 395,714 L 396,715 L 407,716 L 413,718 L 436,719 L 437,720 L 454,720 L 455,719 L 479,718 L 490,715 L 502,714 L 506,712 L 517,710 L 532,704 L 535,704 L 537,702 L 549,698 L 551,696 L 553,696 L 577,683 L 600,667 L 620,649 L 637,630 L 650,612 L 656,602 L 656,600 L 658,598 L 670,573 L 671,568 L 674,563 L 674,560 L 677,554 L 678,547 L 683,532 L 684,521 L 686,515 L 687,491 L 688,490 L 688,468 L 689,467 L 689,462 L 687,456 L 688,454 L 686,446 L 686,433 L 685,432 L 683,408 L 680,406 L 667,405 L 656,401 L 652,401 L 646,398 L 642,398 L 636,395 L 629,394 L 627,392 L 617,389 L 613,386 L 598,380 L 566,360 L 546,344 L 524,322 L 509,303 Z M 324,578 L 331,571 L 338,571 L 344,576 L 346,580 L 346,585 L 349,592 L 349,595 L 352,599 L 355,607 L 365,621 L 378,633 L 392,642 L 407,649 L 410,649 L 420,653 L 434,654 L 435,655 L 464,654 L 481,650 L 487,647 L 492,646 L 513,633 L 525,622 L 535,609 L 543,593 L 544,586 L 546,582 L 546,578 L 551,572 L 553,571 L 561,571 L 567,577 L 568,585 L 562,605 L 553,622 L 544,634 L 532,646 L 522,654 L 519,655 L 513,660 L 511,660 L 499,667 L 486,672 L 474,675 L 461,676 L 460,677 L 441,678 L 440,677 L 428,677 L 423,675 L 417,675 L 396,669 L 394,667 L 389,666 L 364,650 L 344,630 L 333,613 L 324,589 Z M 552,408 L 568,409 L 575,413 L 589,428 L 597,446 L 597,452 L 598,453 L 598,476 L 597,477 L 597,482 L 594,488 L 594,491 L 586,505 L 579,512 L 566,520 L 548,520 L 536,513 L 530,507 L 523,497 L 517,480 L 517,471 L 516,470 L 517,449 L 522,434 L 528,424 L 537,415 L 547,409 L 551,409 Z M 325,408 L 341,409 L 351,415 L 358,422 L 363,429 L 370,446 L 371,472 L 370,473 L 370,481 L 367,487 L 367,490 L 363,499 L 358,506 L 347,516 L 339,520 L 322,520 L 311,514 L 298,500 L 297,496 L 294,492 L 290,475 L 290,451 L 293,443 L 293,439 L 297,430 L 302,423 L 314,412 L 319,409 L 324,409 Z" fill="#dea36e" stroke="#222" fill-rule="evenodd" stroke-width="4" stroke-linejoin="round" stroke-linecap="round" id="sunny-girl-skin" />
<path d="M 751,682 L 750,681 L 653,681 L 731,681 L 732,682 L 739,682 L 740,681 L 741,682 L 746,682 L 748,681 L 750,683 L 703,731 L 676,753 L 657,766 L 632,781 L 602,796 L 567,810 L 551,814 L 547,816 L 544,816 L 540,818 L 519,822 L 518,823 L 514,823 L 513,824 L 509,824 L 508,825 L 479,828 L 478,829 L 471,829 L 470,830 L 444,831 L 482,830 L 488,828 L 502,827 L 503,826 L 508,826 L 523,822 L 537,820 L 567,810 L 570,810 L 578,806 L 581,806 L 588,802 L 593,801 L 609,793 L 611,793 L 627,785 L 633,780 L 639,778 L 644,774 L 659,766 L 689,744 L 711,725 L 741,695 L 750,685 Z M 644,661 L 640,662 L 619,682 L 585,706 L 553,722 L 545,724 L 528,731 L 522,732 L 520,734 L 520,742 L 517,755 L 508,766 L 508,780 L 506,787 L 497,797 L 505,790 L 508,784 L 509,780 L 509,766 L 517,757 L 520,747 L 520,738 L 523,733 L 555,722 L 582,708 L 615,686 L 642,662 L 644,664 L 644,672 L 646,676 L 651,680 L 645,674 Z M 129,682 L 131,686 L 148,705 L 171,728 L 190,744 L 207,757 L 218,763 L 233,774 L 265,791 L 267,791 L 292,803 L 313,810 L 316,812 L 319,812 L 344,820 L 353,821 L 357,823 L 367,824 L 378,827 L 393,828 L 400,830 L 441,831 L 413,830 L 412,829 L 404,829 L 403,828 L 395,828 L 394,827 L 386,827 L 385,826 L 367,824 L 366,823 L 348,820 L 340,817 L 335,817 L 302,806 L 282,798 L 230,771 L 202,752 L 174,729 L 132,686 L 131,684 L 133,682 L 137,681 L 237,681 L 244,677 L 246,673 L 246,665 L 249,662 L 264,677 L 295,700 L 310,709 L 332,720 L 334,720 L 351,728 L 368,733 L 370,735 L 369,736 L 370,739 L 370,735 L 368,733 L 362,730 L 338,722 L 301,703 L 269,680 L 248,661 L 246,662 L 245,674 L 239,680 L 136,681 L 135,682 Z M 761,446 L 754,447 L 745,452 L 742,455 L 742,457 L 756,474 L 759,480 L 763,494 L 763,501 L 764,502 L 763,520 L 757,538 L 749,550 L 736,563 L 729,568 L 712,576 L 697,578 L 692,581 L 686,596 L 671,622 L 667,658 L 810,658 L 813,656 L 821,626 L 823,610 L 824,609 L 824,602 L 825,601 L 825,592 L 826,591 L 826,558 L 825,557 L 825,550 L 824,549 L 822,533 L 818,521 L 818,518 L 813,508 L 813,506 L 799,482 L 792,473 L 775,456 Z M 760,446 L 774,456 L 797,480 L 809,499 L 819,523 L 819,527 L 821,531 L 823,547 L 824,548 L 825,563 L 826,564 L 826,586 L 825,587 L 825,594 L 824,595 L 823,614 L 813,654 L 810,658 L 669,658 L 667,655 L 670,642 L 671,623 L 681,607 L 681,605 L 689,591 L 692,582 L 695,579 L 705,578 L 716,575 L 735,565 L 750,550 L 759,535 L 763,523 L 763,518 L 765,511 L 765,502 L 763,496 L 763,490 L 759,478 L 750,464 L 743,457 L 743,455 L 746,452 L 753,449 L 755,447 Z M 130,446 L 111,460 L 97,474 L 83,494 L 75,510 L 68,532 L 67,543 L 65,550 L 65,558 L 64,559 L 64,591 L 65,592 L 65,602 L 66,603 L 67,615 L 68,616 L 71,635 L 77,656 L 79,658 L 224,658 L 224,645 L 223,644 L 223,636 L 222,635 L 222,626 L 220,621 L 215,615 L 202,589 L 200,582 L 193,578 L 183,577 L 174,574 L 158,565 L 142,550 L 132,533 L 129,522 L 129,515 L 128,514 L 129,492 L 135,475 L 149,458 L 150,455 L 135,446 Z M 129,447 L 134,446 L 142,451 L 144,451 L 149,455 L 149,457 L 143,463 L 135,474 L 134,478 L 132,480 L 128,494 L 128,520 L 132,534 L 142,551 L 153,562 L 161,568 L 181,577 L 189,578 L 190,579 L 196,579 L 199,582 L 209,605 L 211,607 L 215,616 L 221,624 L 222,642 L 223,643 L 223,651 L 224,652 L 224,656 L 222,658 L 80,658 L 75,650 L 75,645 L 72,638 L 72,634 L 67,613 L 67,605 L 66,604 L 66,596 L 65,595 L 65,583 L 64,582 L 64,565 L 65,564 L 67,538 L 69,534 L 70,526 L 78,504 L 93,480 L 112,460 Z M 554,410 L 553,411 L 547,411 L 543,414 L 541,414 L 528,427 L 524,434 L 524,437 L 522,439 L 519,451 L 518,470 L 519,471 L 519,478 L 522,486 L 522,489 L 529,503 L 538,512 L 546,517 L 549,518 L 565,518 L 576,512 L 585,503 L 589,497 L 596,476 L 596,453 L 595,452 L 595,447 L 592,441 L 592,438 L 584,424 L 577,417 L 567,411 Z M 541,426 L 546,426 L 553,429 L 559,435 L 562,441 L 561,453 L 554,461 L 547,464 L 538,464 L 534,462 L 527,455 L 525,451 L 525,441 L 527,436 L 534,429 Z M 549,411 L 565,411 L 577,418 L 584,425 L 589,433 L 589,436 L 592,440 L 592,444 L 595,451 L 595,457 L 596,458 L 595,476 L 593,480 L 592,488 L 587,499 L 576,511 L 563,518 L 551,518 L 539,512 L 526,497 L 522,488 L 522,482 L 519,474 L 519,456 L 520,455 L 520,451 L 523,447 L 525,449 L 525,452 L 527,456 L 533,462 L 539,465 L 546,465 L 555,461 L 562,452 L 562,439 L 559,434 L 554,429 L 548,426 L 538,426 L 534,428 L 529,433 L 527,431 L 529,427 L 541,415 Z M 326,410 L 325,411 L 320,411 L 313,415 L 300,429 L 295,440 L 292,453 L 292,474 L 296,491 L 301,501 L 310,511 L 322,518 L 338,518 L 343,515 L 345,515 L 358,503 L 365,490 L 366,483 L 368,479 L 368,473 L 369,472 L 369,455 L 368,454 L 368,447 L 365,441 L 365,438 L 358,425 L 349,416 L 340,411 Z M 315,426 L 322,427 L 326,429 L 333,436 L 335,440 L 335,450 L 333,455 L 327,461 L 322,464 L 312,464 L 306,461 L 301,456 L 301,454 L 298,449 L 298,442 L 301,435 L 307,429 Z M 322,411 L 338,411 L 348,416 L 357,425 L 361,431 L 368,450 L 368,476 L 366,480 L 365,488 L 362,493 L 362,495 L 357,503 L 349,511 L 336,518 L 325,518 L 322,517 L 308,508 L 302,501 L 298,494 L 293,477 L 292,459 L 293,458 L 294,445 L 296,443 L 298,445 L 298,451 L 301,457 L 306,462 L 312,465 L 320,465 L 327,462 L 333,457 L 333,455 L 335,453 L 336,441 L 332,433 L 329,430 L 322,426 L 312,426 L 306,429 L 302,433 L 300,431 L 302,427 L 312,417 Z M 600,378 L 580,367 L 549,344 L 525,320 L 516,309 L 501,286 L 494,272 L 491,272 L 489,276 L 478,289 L 448,319 L 433,331 L 397,354 L 375,365 L 373,365 L 358,372 L 367,369 L 369,367 L 382,362 L 384,360 L 386,360 L 399,353 L 436,329 L 454,314 L 476,292 L 489,275 L 493,272 L 496,275 L 502,288 L 510,301 L 522,317 L 540,336 L 568,359 L 593,375 L 595,375 Z M 162,312 L 161,336 L 160,337 L 160,366 L 161,367 L 162,384 L 166,388 L 186,395 L 188,393 L 189,385 L 194,380 L 197,379 L 220,379 L 221,378 L 250,377 L 251,376 L 273,374 L 283,371 L 297,369 L 301,367 L 309,366 L 313,364 L 327,361 L 333,358 L 336,358 L 339,356 L 354,351 L 361,347 L 363,347 L 383,337 L 411,320 L 437,300 L 467,269 L 485,243 L 490,238 L 498,237 L 501,238 L 506,243 L 510,255 L 520,275 L 530,291 L 540,304 L 561,326 L 590,348 L 626,367 L 644,373 L 647,375 L 674,382 L 686,383 L 699,386 L 704,391 L 706,395 L 724,388 L 726,386 L 726,382 L 727,381 L 727,371 L 728,370 L 728,360 L 729,359 L 728,331 L 727,330 L 726,313 L 725,312 L 724,302 L 723,301 L 720,284 L 710,256 L 698,231 L 683,207 L 669,189 L 647,166 L 620,144 L 590,125 L 570,115 L 568,115 L 548,106 L 542,105 L 539,103 L 535,103 L 529,100 L 525,100 L 521,98 L 513,97 L 508,95 L 486,92 L 485,91 L 478,91 L 477,90 L 433,88 L 432,89 L 421,89 L 420,90 L 394,92 L 393,93 L 371,97 L 367,99 L 363,99 L 341,106 L 338,108 L 335,108 L 325,113 L 323,113 L 321,115 L 319,115 L 297,126 L 270,143 L 250,159 L 229,179 L 211,200 L 197,220 L 180,252 L 176,264 L 173,269 Z M 161,323 L 162,322 L 162,316 L 165,305 L 165,300 L 167,296 L 167,292 L 174,268 L 181,253 L 181,251 L 194,226 L 214,197 L 228,181 L 243,166 L 263,149 L 298,126 L 331,110 L 339,108 L 345,105 L 348,105 L 354,102 L 357,102 L 360,100 L 368,99 L 375,96 L 381,96 L 382,95 L 392,94 L 398,92 L 404,92 L 405,91 L 418,91 L 419,90 L 430,90 L 431,89 L 454,89 L 455,90 L 468,90 L 469,91 L 483,91 L 494,94 L 502,94 L 510,97 L 516,97 L 520,99 L 528,100 L 531,102 L 546,106 L 557,111 L 560,111 L 591,126 L 609,137 L 631,153 L 645,165 L 663,183 L 680,204 L 697,230 L 697,232 L 699,234 L 705,246 L 705,248 L 708,252 L 718,279 L 718,282 L 721,290 L 722,299 L 724,304 L 725,316 L 727,322 L 727,335 L 728,336 L 729,352 L 728,353 L 728,362 L 727,363 L 726,385 L 723,388 L 718,389 L 716,391 L 714,391 L 707,395 L 704,390 L 698,385 L 691,383 L 675,382 L 671,380 L 663,379 L 656,376 L 652,376 L 646,373 L 643,373 L 627,367 L 625,365 L 623,365 L 603,355 L 591,348 L 570,333 L 544,308 L 524,281 L 510,254 L 506,242 L 504,239 L 500,237 L 491,237 L 485,242 L 471,263 L 451,286 L 429,306 L 407,322 L 382,337 L 378,338 L 364,346 L 362,346 L 355,350 L 340,355 L 337,357 L 315,364 L 311,364 L 307,366 L 298,367 L 295,369 L 285,370 L 276,373 L 263,374 L 256,376 L 243,376 L 242,377 L 232,377 L 231,378 L 199,378 L 198,379 L 194,379 L 188,386 L 188,392 L 186,394 L 183,394 L 180,392 L 165,387 L 162,384 L 161,358 L 160,357 Z" fill="#655039" stroke="#222" fill-rule="evenodd" stroke-width="4" stroke-linejoin="round" stroke-linecap="round" id="sunny-girl-hair" />
<path d="M 326,578 L 326,588 L 334,611 L 344,627 L 362,646 L 374,655 L 392,665 L 412,672 L 417,672 L 430,675 L 457,675 L 458,674 L 473,673 L 499,665 L 517,655 L 528,647 L 548,626 L 558,609 L 566,585 L 566,579 L 562,574 L 560,573 L 552,574 L 548,578 L 548,582 L 543,598 L 533,615 L 516,633 L 498,645 L 485,651 L 478,652 L 471,655 L 465,655 L 457,657 L 434,657 L 433,656 L 420,655 L 410,651 L 407,651 L 397,647 L 379,636 L 362,620 L 354,609 L 347,595 L 347,592 L 344,586 L 344,580 L 342,576 L 338,573 L 332,573 Z" fill="#ea3d35" stroke="#222" fill-rule="evenodd" stroke-width="4" stroke-linejoin="round" stroke-linecap="round" id="sunny-girl-outfit" />
<defs><clipPath id="sunny-girl-hair-clip"><use xlink:href="#sunny-girl-hair" /></clipPath><clipPath id="sunny-girl-skin-clip"><use xlink:href="#sunny-girl-skin" /></clipPath><clipPath id="sunny-girl-outfit-clip"><use xlink:href="#sunny-girl-outfit" /></clipPath></defs><g clip-path="url(#sunny-girl-hair-clip)"><ellipse cx="460" cy="210" rx="280" ry="220" fill="#f6b454" opacity="0.45" transform="rotate(-12 460 210)" /><ellipse cx="540" cy="260" rx="260" ry="240" fill="#c86b2c" opacity="0.3" transform="rotate(15 540 260)" /></g><g clip-path="url(#sunny-girl-skin-clip)"><ellipse cx="460" cy="420" rx="260" ry="300" fill="#f3c28c" opacity="0.45" transform="rotate(-10 460 420)" /><ellipse cx="560" cy="500" rx="280" ry="320" fill="#c87345" opacity="0.32" transform="rotate(12 560 500)" /></g><g clip-path="url(#sunny-girl-outfit-clip)"><ellipse cx="460" cy="640" rx="260" ry="200" fill="#ff7766" opacity="0.38" transform="rotate(-8 460 640)" /><ellipse cx="540" cy="660" rx="280" ry="210" fill="#d43040" opacity="0.3" transform="rotate(10 540 660)" /></g><path d="M 325,578 L 325,589 L 327,592 L 328,599 L 334,613 L 345,630 L 364,649 L 382,661 L 392,665 L 396,668 L 399,668 L 406,671 L 418,674 L 433,675 L 434,676 L 448,676 L 449,677 L 456,675 L 473,674 L 477,672 L 485,671 L 494,668 L 513,659 L 526,650 L 543,634 L 552,622 L 561,605 L 561,602 L 563,599 L 564,592 L 567,584 L 566,577 L 560,572 L 553,572 L 548,576 L 547,584 L 545,587 L 545,590 L 542,598 L 531,616 L 513,634 L 492,647 L 482,651 L 475,652 L 472,654 L 466,654 L 458,656 L 433,656 L 432,655 L 419,654 L 413,651 L 410,651 L 404,648 L 399,647 L 381,636 L 365,622 L 354,607 L 348,595 L 347,589 L 345,587 L 345,581 L 343,576 L 338,572 L 332,572 L 329,573 Z" fill="none" stroke="#222" stroke-width="4" stroke-linejoin="round" stroke-linecap="round" />
<path d="M 204,506 L 204,513 L 206,519 L 206,525 L 207,526 L 209,540 L 220,575 L 222,577 L 224,584 L 236,607 L 248,625 L 259,639 L 286,666 L 311,684 L 323,691 L 350,704 L 358,706 L 364,709 L 367,709 L 373,712 L 379,713 L 373,712 L 367,709 L 364,709 L 348,703 L 312,684 L 287,666 L 257,636 L 247,623 L 233,601 L 219,572 L 209,540 L 209,536 L 206,525 L 206,519 L 204,513 Z" fill="none" stroke="#222" stroke-width="4" stroke-linejoin="round" stroke-linecap="round" />
<path d="M 687,424 L 688,445 L 690,450 L 690,494 L 689,495 L 689,503 L 688,504 L 687,522 L 678,557 L 674,565 L 672,573 L 670,575 L 670,577 L 651,613 L 633,637 L 607,663 L 577,685 L 553,698 L 551,698 L 532,707 L 506,715 L 492,717 L 506,715 L 540,704 L 547,701 L 549,699 L 562,694 L 581,683 L 609,662 L 631,640 L 643,625 L 655,607 L 669,580 L 669,578 L 674,568 L 680,550 L 687,522 L 688,504 L 689,503 L 689,495 L 690,494 L 690,450 L 688,445 Z" fill="none" stroke="#222" stroke-width="4" stroke-linejoin="round" stroke-linecap="round" />
<path d="M 549,410 L 536,417 L 528,426 L 524,433 L 524,435 L 522,437 L 521,445 L 518,453 L 518,477 L 519,481 L 521,483 L 522,491 L 527,501 L 538,513 L 547,518 L 563,519 L 567,518 L 577,512 L 585,504 L 592,492 L 593,486 L 596,479 L 596,448 L 588,429 L 584,423 L 574,414 L 564,410 Z" fill="none" stroke="#222" stroke-width="4" stroke-linejoin="round" stroke-linecap="round" />
<path d="M 322,410 L 313,414 L 302,425 L 298,431 L 294,441 L 294,446 L 292,452 L 291,470 L 293,477 L 293,483 L 296,492 L 304,506 L 314,515 L 317,515 L 321,518 L 334,519 L 335,518 L 340,518 L 344,515 L 346,515 L 358,504 L 362,498 L 366,488 L 366,484 L 369,478 L 369,450 L 368,449 L 368,445 L 365,439 L 365,436 L 362,432 L 362,430 L 358,424 L 349,415 L 338,410 Z" fill="none" stroke="#222" stroke-width="4" stroke-linejoin="round" stroke-linecap="round" />
<path d="M 748,411 L 744,407 L 736,406 L 717,414 L 709,421 L 709,431 L 710,433 L 715,438 L 723,439 L 744,429 L 750,423 L 750,415 Z" fill="none" stroke="#222" stroke-width="4" stroke-linejoin="round" stroke-linecap="round" />
<path d="M 142,413 L 142,424 L 149,430 L 168,439 L 175,439 L 181,434 L 182,422 L 181,419 L 178,416 L 155,406 L 147,407 Z" fill="none" stroke="#222" stroke-width="4" stroke-linejoin="round" stroke-linecap="round" />
<path d="M 290,392 L 295,392 L 304,389 L 312,388 L 315,386 L 322,385 L 329,382 L 333,382 L 336,380 L 350,376 L 365,369 L 367,369 L 378,363 L 380,363 L 410,347 L 431,333 L 450,318 L 478,290 L 488,278 L 490,274 L 493,272 L 509,300 L 520,315 L 547,343 L 567,359 L 598,378 L 600,378 L 604,381 L 606,381 L 629,392 L 639,394 L 645,397 L 652,398 L 656,400 L 660,400 L 668,403 L 682,405 L 685,408 L 686,422 L 685,407 L 683,405 L 668,403 L 627,391 L 599,378 L 585,369 L 580,367 L 560,353 L 549,344 L 520,314 L 507,296 L 494,272 L 490,273 L 489,276 L 478,289 L 448,319 L 433,331 L 404,350 L 371,367 L 369,367 L 350,376 L 347,376 L 333,382 L 329,382 L 322,385 L 315,386 L 312,388 L 304,389 L 295,392 Z" fill="none" stroke="#222" stroke-width="4" stroke-linejoin="round" stroke-linecap="round" />
<path d="M 362,347 L 383,337 L 402,326 L 431,305 L 461,276 L 476,257 L 485,243 L 490,238 L 497,237 L 501,238 L 505,242 L 509,253 L 520,275 L 530,291 L 545,310 L 561,326 L 581,342 L 600,354 L 628,368 L 637,371 L 628,368 L 602,355 L 583,343 L 566,330 L 543,307 L 531,292 L 519,273 L 509,253 L 505,241 L 503,239 L 497,237 L 489,238 L 486,241 L 476,257 L 459,278 L 443,294 L 415,317 L 395,330 Z" fill="none" stroke="#222" stroke-width="4" stroke-linejoin="round" stroke-linecap="round" />
<path d="M 324,113 L 297,126 L 274,140 L 250,159 L 229,179 L 207,205 L 195,223 L 180,252 L 180,254 L 174,266 L 173,271 L 181,250 L 190,232 L 206,207 L 224,185 L 247,162 L 276,139 L 299,125 Z" fill="none" stroke="#222" stroke-width="4" stroke-linejoin="round" stroke-linecap="round" />
<path d="M 562,112 L 570,115 L 600,131 L 614,140 L 641,161 L 665,185 L 676,198 L 698,231 L 707,250 L 698,231 L 683,207 L 662,181 L 647,166 L 628,150 L 602,132 L 590,125 Z" fill="none" stroke="#222" stroke-width="4" stroke-linejoin="round" stroke-linecap="round" />
</svg>