<svg xmlns="http://www.w3.org/2000/svg" viewBox="0 0 120 120">
  <defs>
    <linearGradient id="sunnyHair" x1="0" x2="1" y1="0" y2="1">
      <stop offset="0" stop-color="#ffb347"/>
      <stop offset="1" stop-color="#ffcc33"/>
    </linearGradient>
  </defs>
  <circle cx="60" cy="60" r="56" fill="#fdf1d0" stroke="#222" stroke-width="4"/>
  <path d="M60 12c-24 0-44 18-44 40v20c0 6 6 10 12 8 14-4 32-6 64 0 8 2 12-4 12-12V52C104 30 84 12 60 12z" fill="url(#sunnyHair)" stroke="#222" stroke-width="4" stroke-linejoin="round"/>
  <ellipse cx="60" cy="84" rx="22" ry="16" fill="#ffe0e8" stroke="#222" stroke-width="3"/>
  <circle cx="44" cy="60" r="6" fill="#222"/>
  <circle cx="76" cy="60" r="6" fill="#222"/>
  <path d="M48 92c6 6 18 6 24 0" fill="none" stroke="#d46a6a" stroke-width="4" stroke-linecap="round"/>
  <circle cx="34" cy="50" r="6" fill="#f6d365" stroke="#222" stroke-width="3"/>
  <circle cx="86" cy="50" r="6" fill="#f6d365" stroke="#222" stroke-width="3"/>
</svg>
