<svg xmlns="http://www.w3.org/2000/svg" width="514" height="503" viewBox="223 318 514 503">
<path d="M 545,611 L 547,618 L 551,623 L 556,623 L 563,613 L 562,611 Z M 546,613 L 548,611 L 561,611 L 563,613 L 561,617 L 555,623 L 552,623 L 547,618 Z M 333,760 L 337,764 L 349,770 L 352,773 L 356,774 L 359,777 L 364,778 L 367,781 L 373,782 L 380,786 L 382,786 L 379,783 L 378,779 L 375,775 L 375,772 L 371,766 L 369,759 L 358,754 L 356,752 L 356,743 L 360,740 L 360,730 L 364,717 L 370,710 L 376,709 L 377,710 L 381,710 L 387,713 L 394,713 L 401,717 L 406,718 L 423,735 L 423,737 L 427,743 L 427,748 L 428,749 L 428,771 L 426,777 L 420,782 L 411,782 L 405,779 L 399,786 L 392,790 L 393,791 L 402,792 L 411,796 L 418,796 L 431,800 L 444,800 L 445,801 L 495,801 L 496,800 L 501,800 L 501,710 L 500,709 L 496,710 L 477,710 L 476,709 L 462,709 L 459,708 L 456,705 L 455,701 L 456,695 L 459,691 L 466,689 L 479,689 L 480,690 L 615,690 L 631,686 L 641,685 L 643,683 L 650,681 L 654,678 L 659,677 L 662,674 L 667,672 L 686,654 L 687,651 L 694,643 L 695,639 L 699,635 L 699,633 L 708,616 L 708,610 L 711,604 L 708,603 L 707,604 L 695,605 L 694,606 L 693,614 L 690,617 L 690,620 L 685,628 L 678,635 L 671,639 L 661,639 L 648,629 L 640,618 L 639,614 L 638,614 L 635,618 L 634,622 L 630,626 L 626,633 L 619,640 L 614,643 L 603,643 L 598,640 L 589,632 L 584,624 L 584,621 L 581,617 L 579,618 L 579,621 L 575,627 L 563,639 L 555,642 L 552,642 L 544,639 L 535,630 L 532,623 L 530,621 L 529,615 L 513,631 L 507,634 L 496,634 L 490,630 L 483,621 L 482,616 L 478,609 L 478,602 L 477,600 L 474,598 L 468,597 L 462,593 L 457,592 L 447,584 L 443,584 L 440,587 L 436,588 L 433,591 L 427,593 L 417,600 L 411,602 L 405,606 L 402,606 L 396,610 L 390,611 L 383,615 L 375,616 L 370,618 L 365,618 L 364,619 L 339,619 L 336,617 L 333,617 L 332,619 L 337,625 L 338,629 L 341,632 L 342,637 L 351,649 L 360,658 L 360,662 L 355,673 L 355,679 L 351,686 L 350,695 L 346,704 L 346,711 L 342,721 L 342,727 L 337,740 L 337,747 L 333,756 Z" fill="#e1cea9" stroke="#222" fill-rule="evenodd" stroke-width="4" stroke-linejoin="round" />
<path d="M 522,725 L 522,740 L 528,745 L 534,756 L 536,757 L 547,757 L 553,755 L 558,749 L 557,744 L 550,734 L 536,726 L 525,725 L 524,724 Z M 370,713 L 367,716 L 364,727 L 364,739 L 358,744 L 358,750 L 359,752 L 368,756 L 372,760 L 373,764 L 376,768 L 377,773 L 380,777 L 381,782 L 387,787 L 393,787 L 398,784 L 405,776 L 412,780 L 419,780 L 424,776 L 425,771 L 425,774 L 419,780 L 412,780 L 407,776 L 405,776 L 396,785 L 392,787 L 387,786 L 381,781 L 380,776 L 377,772 L 375,765 L 371,758 L 369,756 L 361,753 L 358,750 L 358,745 L 361,742 L 369,741 L 375,743 L 382,749 L 387,760 L 405,759 L 411,754 L 411,750 L 406,739 L 402,735 L 384,727 L 377,727 L 369,725 L 367,723 L 367,717 L 371,713 L 375,712 L 380,714 L 384,714 L 377,712 Z M 515,338 L 510,338 L 509,337 L 476,337 L 475,338 L 468,338 L 460,341 L 460,343 L 463,344 L 476,356 L 476,363 L 468,369 L 465,369 L 459,365 L 456,361 L 453,360 L 443,352 L 441,352 L 437,349 L 422,342 L 418,342 L 406,338 L 373,337 L 372,338 L 366,338 L 356,342 L 348,343 L 327,353 L 304,371 L 291,386 L 285,397 L 277,407 L 276,412 L 273,416 L 272,422 L 269,427 L 268,436 L 263,453 L 263,464 L 262,465 L 262,476 L 261,477 L 261,493 L 262,494 L 262,503 L 263,504 L 263,524 L 264,525 L 264,548 L 265,549 L 264,603 L 263,604 L 263,614 L 260,622 L 259,634 L 256,641 L 255,649 L 252,656 L 251,663 L 256,673 L 256,675 L 264,689 L 264,691 L 267,694 L 272,703 L 291,727 L 307,743 L 328,759 L 335,766 L 337,766 L 354,777 L 360,779 L 368,784 L 378,788 L 384,789 L 391,793 L 393,793 L 391,793 L 385,789 L 382,789 L 371,784 L 368,784 L 364,781 L 356,778 L 346,771 L 334,765 L 329,758 L 331,750 L 334,744 L 335,733 L 339,726 L 340,715 L 343,709 L 344,697 L 348,689 L 349,681 L 352,677 L 353,667 L 356,663 L 356,657 L 343,644 L 340,640 L 339,636 L 334,627 L 330,623 L 329,616 L 332,613 L 343,614 L 344,615 L 357,615 L 358,614 L 369,614 L 370,613 L 381,612 L 383,610 L 391,608 L 397,604 L 403,603 L 408,599 L 411,599 L 416,595 L 422,593 L 425,590 L 431,588 L 434,585 L 436,585 L 442,581 L 448,582 L 452,586 L 456,587 L 459,590 L 464,591 L 470,595 L 476,596 L 480,601 L 480,605 L 486,621 L 496,631 L 504,632 L 510,630 L 522,619 L 528,611 L 531,614 L 532,619 L 538,630 L 545,637 L 551,639 L 555,639 L 563,636 L 573,626 L 577,619 L 577,617 L 581,614 L 585,618 L 586,622 L 591,630 L 599,638 L 601,638 L 606,641 L 611,641 L 618,638 L 624,632 L 631,622 L 632,618 L 638,611 L 641,613 L 642,617 L 651,629 L 661,636 L 669,637 L 677,633 L 683,627 L 683,625 L 687,621 L 688,616 L 691,611 L 691,607 L 695,602 L 712,601 L 714,603 L 714,605 L 710,613 L 710,618 L 707,622 L 705,629 L 702,632 L 700,638 L 688,655 L 670,673 L 665,675 L 662,678 L 642,687 L 634,688 L 624,691 L 618,691 L 626,691 L 639,687 L 643,687 L 664,677 L 674,670 L 683,661 L 699,640 L 701,634 L 704,631 L 705,627 L 709,621 L 710,613 L 714,605 L 713,601 L 694,602 L 692,604 L 691,610 L 688,615 L 688,618 L 683,626 L 677,633 L 667,637 L 662,636 L 656,633 L 646,623 L 641,614 L 641,612 L 638,610 L 633,616 L 632,620 L 629,623 L 623,633 L 616,639 L 604,640 L 598,637 L 591,630 L 590,627 L 587,624 L 585,617 L 582,613 L 578,614 L 576,621 L 572,627 L 565,634 L 559,638 L 553,639 L 546,637 L 540,632 L 536,627 L 535,623 L 532,619 L 530,611 L 528,611 L 523,616 L 521,620 L 511,629 L 506,631 L 497,631 L 489,625 L 488,622 L 485,619 L 483,610 L 480,604 L 480,600 L 477,596 L 474,596 L 464,591 L 462,591 L 439,577 L 436,572 L 436,566 L 440,562 L 447,562 L 455,571 L 458,572 L 461,575 L 465,576 L 471,580 L 474,580 L 481,584 L 494,586 L 502,589 L 515,590 L 523,592 L 531,592 L 532,593 L 539,593 L 540,594 L 640,594 L 641,593 L 649,593 L 656,591 L 687,590 L 701,586 L 715,585 L 717,582 L 717,570 L 718,569 L 718,515 L 717,514 L 717,508 L 713,492 L 710,487 L 708,478 L 706,476 L 703,468 L 691,451 L 690,448 L 676,433 L 666,425 L 656,419 L 652,415 L 648,414 L 644,410 L 639,409 L 636,406 L 630,405 L 626,402 L 621,401 L 613,397 L 607,396 L 601,393 L 589,392 L 583,389 L 565,387 L 556,384 L 548,383 L 545,380 L 544,377 L 545,370 L 548,367 L 559,366 L 557,361 L 551,355 L 533,345 L 531,345 L 529,343 L 523,342 Z M 701,499 L 704,503 L 704,510 L 701,519 L 696,524 L 692,526 L 688,526 L 684,524 L 682,522 L 682,513 L 687,504 L 692,499 Z M 610,499 L 618,499 L 624,505 L 629,514 L 629,522 L 623,528 L 620,528 L 613,523 L 605,509 L 605,506 Z M 386,388 L 395,388 L 396,389 L 407,390 L 416,395 L 431,410 L 435,417 L 435,420 L 439,429 L 439,450 L 430,467 L 418,479 L 414,480 L 410,483 L 403,484 L 395,487 L 385,487 L 377,484 L 370,483 L 363,479 L 348,464 L 343,455 L 343,450 L 341,445 L 341,431 L 343,427 L 343,423 L 349,410 L 359,399 L 364,396 L 370,394 L 374,391 Z" fill="#5f8360" stroke="#222" fill-rule="evenodd" stroke-width="4" stroke-linejoin="round" />
<path d="M 371,716 L 369,718 L 369,720 L 371,722 L 379,723 L 380,724 L 386,724 L 403,732 L 409,738 L 414,749 L 414,756 L 408,761 L 400,763 L 386,763 L 383,760 L 379,749 L 368,744 L 361,745 L 360,746 L 361,750 L 370,754 L 374,758 L 378,765 L 378,768 L 382,774 L 383,780 L 385,782 L 391,784 L 396,782 L 403,774 L 406,773 L 414,778 L 420,777 L 423,773 L 423,748 L 419,738 L 415,733 L 403,722 L 395,720 L 390,717 Z M 386,772 L 389,769 L 394,769 L 396,771 L 396,775 L 394,777 L 389,777 L 386,774 Z M 699,502 L 694,502 L 689,507 L 685,515 L 685,520 L 686,521 L 693,522 L 699,516 L 700,508 L 701,507 Z M 612,502 L 609,506 L 609,509 L 612,516 L 616,522 L 620,524 L 624,523 L 626,521 L 626,516 L 622,510 L 621,506 L 616,502 Z M 378,393 L 372,397 L 369,397 L 362,401 L 355,407 L 354,410 L 351,413 L 346,424 L 346,429 L 345,430 L 346,454 L 351,463 L 359,472 L 364,476 L 368,477 L 374,481 L 386,482 L 387,483 L 406,481 L 413,477 L 415,477 L 425,468 L 432,458 L 436,446 L 436,432 L 433,425 L 432,418 L 424,406 L 413,397 L 409,396 L 405,393 L 401,392 L 382,392 Z M 397,403 L 410,403 L 418,410 L 422,418 L 422,425 L 419,429 L 419,431 L 412,438 L 407,440 L 397,440 L 390,437 L 384,428 L 384,416 L 391,407 Z M 356,325 L 348,329 L 341,330 L 335,334 L 332,334 L 329,337 L 323,339 L 320,342 L 316,343 L 302,353 L 282,374 L 273,386 L 272,390 L 269,393 L 268,398 L 264,403 L 264,406 L 260,411 L 259,416 L 256,419 L 255,428 L 251,437 L 251,445 L 247,462 L 247,515 L 249,522 L 250,544 L 251,545 L 251,586 L 250,587 L 250,595 L 247,607 L 246,621 L 243,628 L 243,635 L 240,639 L 237,639 L 233,636 L 230,636 L 227,641 L 229,646 L 229,651 L 233,658 L 233,662 L 237,667 L 238,672 L 242,678 L 242,681 L 244,683 L 247,691 L 250,694 L 255,704 L 259,708 L 259,710 L 273,729 L 293,750 L 311,765 L 320,770 L 335,781 L 340,783 L 343,786 L 348,787 L 351,790 L 355,791 L 364,796 L 367,796 L 373,800 L 380,801 L 387,805 L 395,806 L 399,809 L 410,810 L 415,813 L 442,815 L 443,816 L 456,817 L 457,818 L 481,818 L 482,817 L 490,817 L 503,814 L 518,813 L 525,810 L 534,809 L 539,806 L 546,805 L 554,801 L 558,801 L 564,797 L 569,796 L 575,792 L 582,790 L 610,773 L 633,755 L 647,741 L 675,706 L 677,701 L 680,698 L 681,694 L 685,689 L 685,686 L 688,683 L 690,677 L 693,673 L 694,668 L 704,657 L 713,643 L 713,640 L 717,635 L 718,629 L 722,624 L 723,617 L 726,613 L 727,603 L 731,594 L 731,576 L 732,575 L 732,567 L 733,566 L 733,559 L 734,558 L 734,531 L 731,518 L 730,499 L 727,494 L 726,484 L 722,477 L 722,473 L 719,469 L 717,463 L 714,460 L 708,448 L 703,441 L 684,421 L 673,412 L 660,403 L 631,388 L 627,388 L 621,384 L 613,383 L 608,380 L 598,379 L 586,375 L 580,367 L 580,365 L 576,361 L 575,358 L 564,347 L 547,334 L 542,333 L 536,329 L 532,329 L 524,325 L 511,324 L 499,321 L 487,321 L 486,322 L 480,322 L 473,324 L 465,324 L 456,328 L 448,329 L 442,333 L 436,333 L 429,329 L 424,329 L 415,325 L 401,324 L 393,322 L 377,322 L 371,324 Z M 537,766 L 540,766 L 543,769 L 543,772 L 540,776 L 537,776 L 535,774 L 535,768 Z M 518,724 L 521,721 L 527,721 L 528,722 L 538,723 L 543,727 L 547,728 L 558,739 L 561,747 L 560,753 L 556,757 L 545,761 L 539,761 L 533,759 L 526,749 L 526,747 L 518,741 Z M 669,694 L 669,696 L 666,699 L 661,708 L 643,729 L 622,750 L 606,763 L 603,764 L 594,771 L 583,777 L 581,777 L 578,780 L 572,782 L 569,785 L 564,786 L 556,790 L 553,790 L 544,795 L 540,795 L 535,798 L 527,799 L 522,801 L 517,798 L 516,794 L 517,790 L 517,762 L 520,758 L 527,765 L 530,774 L 538,781 L 541,781 L 552,769 L 554,769 L 561,773 L 565,773 L 570,768 L 570,747 L 561,730 L 551,721 L 549,721 L 543,717 L 533,716 L 529,714 L 522,713 L 519,710 L 519,708 L 521,706 L 525,706 L 526,705 L 551,705 L 552,706 L 621,705 L 622,704 L 629,704 L 639,700 L 643,700 L 648,697 L 657,695 L 664,691 L 666,691 Z M 594,610 L 597,607 L 622,607 L 624,609 L 624,614 L 621,617 L 619,623 L 613,629 L 606,630 L 599,624 L 598,620 L 595,618 Z M 540,608 L 543,605 L 552,606 L 553,607 L 565,607 L 569,612 L 564,620 L 557,627 L 550,628 L 544,621 L 543,617 L 540,614 Z M 649,607 L 652,604 L 655,603 L 657,604 L 677,603 L 680,606 L 680,611 L 676,616 L 675,620 L 668,627 L 666,627 L 659,623 L 652,614 L 652,612 Z M 491,601 L 493,599 L 501,599 L 508,602 L 513,602 L 518,607 L 514,613 L 507,620 L 500,621 L 493,612 Z M 346,340 L 351,340 L 360,336 L 371,335 L 375,333 L 393,333 L 399,335 L 415,336 L 420,339 L 426,340 L 430,343 L 446,350 L 457,358 L 463,364 L 468,365 L 473,361 L 473,358 L 471,355 L 455,342 L 458,337 L 466,335 L 474,335 L 479,333 L 503,333 L 504,334 L 522,336 L 524,338 L 528,340 L 531,340 L 535,343 L 539,344 L 541,346 L 548,349 L 565,365 L 565,367 L 562,370 L 558,370 L 557,369 L 550,370 L 547,374 L 549,380 L 551,381 L 560,381 L 574,385 L 586,386 L 596,390 L 607,391 L 611,394 L 618,395 L 625,399 L 630,400 L 634,403 L 637,403 L 641,406 L 647,408 L 657,416 L 666,421 L 677,430 L 688,441 L 702,460 L 704,465 L 707,468 L 707,470 L 711,476 L 712,483 L 716,490 L 716,495 L 720,503 L 720,507 L 721,508 L 721,525 L 722,526 L 722,552 L 721,553 L 720,584 L 716,588 L 709,588 L 690,593 L 675,593 L 674,594 L 647,596 L 646,597 L 565,598 L 564,597 L 522,596 L 506,592 L 495,591 L 487,588 L 476,586 L 474,584 L 458,577 L 446,565 L 443,564 L 440,566 L 439,571 L 442,576 L 450,580 L 454,584 L 460,586 L 463,589 L 466,589 L 473,593 L 479,594 L 481,596 L 485,607 L 486,615 L 491,623 L 495,627 L 499,629 L 510,627 L 515,623 L 527,608 L 530,608 L 533,611 L 533,615 L 540,628 L 549,636 L 557,636 L 564,632 L 570,626 L 575,617 L 576,612 L 581,609 L 587,615 L 589,622 L 592,627 L 601,636 L 603,637 L 615,637 L 618,635 L 626,625 L 631,614 L 637,607 L 640,607 L 642,609 L 647,620 L 657,631 L 667,634 L 676,631 L 681,625 L 686,616 L 689,604 L 692,600 L 694,599 L 712,598 L 716,601 L 716,608 L 712,617 L 712,621 L 708,626 L 707,631 L 704,634 L 702,640 L 698,644 L 698,646 L 689,658 L 672,675 L 654,685 L 651,685 L 645,689 L 640,689 L 631,693 L 619,693 L 618,694 L 610,694 L 604,696 L 514,696 L 513,695 L 492,695 L 491,694 L 464,694 L 460,698 L 460,701 L 463,704 L 467,705 L 498,705 L 500,704 L 503,705 L 507,709 L 507,718 L 506,719 L 506,729 L 507,730 L 506,733 L 507,734 L 507,746 L 506,747 L 507,750 L 507,759 L 506,760 L 506,800 L 503,804 L 496,805 L 492,807 L 454,808 L 453,807 L 443,807 L 435,804 L 417,803 L 411,800 L 406,800 L 396,796 L 388,795 L 382,791 L 373,789 L 362,784 L 358,781 L 354,780 L 351,777 L 347,776 L 344,773 L 332,767 L 297,738 L 282,721 L 266,700 L 265,697 L 262,694 L 261,690 L 258,687 L 257,683 L 254,679 L 250,669 L 248,667 L 249,652 L 252,647 L 253,637 L 257,628 L 257,619 L 258,618 L 258,614 L 260,608 L 260,601 L 261,600 L 262,554 L 261,553 L 261,536 L 260,535 L 259,507 L 258,506 L 258,464 L 259,463 L 259,456 L 261,450 L 262,440 L 266,431 L 266,426 L 274,406 L 283,394 L 283,392 L 296,375 L 320,354 L 323,353 L 331,347 L 340,344 Z" fill="#040807" stroke="#222" fill-rule="evenodd" stroke-width="4" stroke-linejoin="round" />
<path d="M 519,724 L 519,741 L 527,747 L 527,749 L 530,752 L 533,758 L 539,760 L 545,760 L 554,757 L 559,753 L 560,751 L 559,743 L 555,736 L 547,729 L 543,728 L 538,724 L 534,724 L 533,723 L 521,722 Z M 521,726 L 524,723 L 525,724 L 532,724 L 536,725 L 550,733 L 554,737 L 558,744 L 559,748 L 558,751 L 553,756 L 547,758 L 536,758 L 532,754 L 530,749 L 527,746 L 527,744 L 524,743 L 521,740 Z M 371,714 L 368,717 L 368,723 L 369,724 L 377,726 L 384,726 L 402,734 L 408,741 L 412,750 L 412,754 L 405,760 L 387,761 L 385,759 L 385,757 L 380,747 L 375,744 L 369,742 L 361,743 L 359,745 L 359,750 L 361,752 L 369,755 L 372,758 L 376,765 L 377,770 L 381,776 L 382,781 L 387,785 L 392,786 L 396,784 L 405,775 L 407,775 L 412,779 L 419,779 L 421,778 L 424,774 L 425,770 L 425,749 L 424,745 L 416,731 L 404,721 L 397,719 L 392,716 L 380,715 L 375,713 Z M 371,715 L 390,716 L 395,719 L 403,721 L 420,738 L 424,748 L 424,773 L 418,779 L 411,778 L 406,774 L 403,775 L 396,783 L 391,785 L 385,783 L 382,780 L 381,774 L 377,768 L 377,765 L 373,758 L 370,755 L 362,752 L 360,750 L 359,746 L 364,743 L 372,744 L 381,751 L 382,756 L 386,762 L 406,761 L 413,756 L 413,749 L 408,738 L 403,733 L 386,725 L 380,725 L 379,724 L 371,723 L 368,720 L 368,718 Z M 668,693 L 664,692 L 657,696 L 648,698 L 643,701 L 639,701 L 629,705 L 622,705 L 621,706 L 599,706 L 598,707 L 526,706 L 525,707 L 521,707 L 520,711 L 533,715 L 543,716 L 547,719 L 551,720 L 562,730 L 571,747 L 571,768 L 565,774 L 561,774 L 554,770 L 550,771 L 549,774 L 541,782 L 538,782 L 529,774 L 526,765 L 521,759 L 519,759 L 518,762 L 518,790 L 517,791 L 518,798 L 521,800 L 527,798 L 532,798 L 540,794 L 544,794 L 553,789 L 556,789 L 564,785 L 569,784 L 572,781 L 578,779 L 581,776 L 583,776 L 594,770 L 597,767 L 606,762 L 622,749 L 642,729 L 660,708 L 661,705 L 668,696 Z M 666,696 L 660,707 L 642,728 L 621,749 L 605,762 L 584,775 L 580,776 L 577,779 L 573,780 L 567,784 L 552,789 L 545,793 L 539,794 L 536,796 L 525,799 L 521,799 L 518,796 L 518,772 L 519,771 L 519,765 L 521,763 L 527,768 L 529,775 L 537,782 L 542,782 L 553,771 L 559,774 L 566,774 L 570,771 L 572,764 L 571,746 L 565,733 L 554,721 L 544,716 L 536,715 L 531,712 L 528,712 L 525,709 L 527,707 L 594,708 L 595,707 L 624,706 L 645,701 L 661,694 L 664,694 Z M 595,610 L 596,618 L 600,622 L 600,624 L 606,629 L 613,628 L 618,623 L 620,617 L 623,614 L 623,609 L 622,608 L 597,608 Z M 597,609 L 619,608 L 622,611 L 622,613 L 616,624 L 612,628 L 607,629 L 600,623 L 599,619 L 596,616 L 595,611 Z M 541,608 L 541,614 L 544,617 L 545,621 L 550,627 L 557,626 L 563,620 L 568,612 L 565,608 L 553,608 L 546,606 L 542,606 Z M 541,610 L 544,607 L 548,608 L 562,608 L 565,609 L 567,611 L 567,613 L 556,626 L 551,626 L 545,620 Z M 652,605 L 650,608 L 653,612 L 653,614 L 661,624 L 666,626 L 670,625 L 673,622 L 675,616 L 679,611 L 679,606 L 677,604 L 672,604 L 671,605 L 657,605 L 655,604 Z M 676,604 L 679,607 L 679,610 L 675,615 L 674,619 L 668,625 L 664,625 L 655,616 L 652,610 L 652,607 L 654,605 L 672,605 Z M 492,601 L 494,612 L 498,619 L 500,620 L 507,619 L 513,613 L 517,607 L 513,603 L 508,603 L 501,600 L 493,600 Z M 493,602 L 495,600 L 498,600 L 505,603 L 511,603 L 515,606 L 515,609 L 506,619 L 501,620 L 497,616 L 494,610 Z M 701,500 L 692,500 L 688,504 L 683,513 L 683,522 L 688,525 L 692,525 L 696,523 L 700,519 L 703,510 L 703,503 Z M 699,501 L 702,506 L 700,516 L 693,523 L 686,522 L 684,520 L 684,515 L 688,507 L 694,501 Z M 610,500 L 606,506 L 606,509 L 614,523 L 620,527 L 623,527 L 628,522 L 628,514 L 623,505 L 618,500 Z M 612,501 L 616,501 L 622,506 L 623,510 L 627,516 L 627,521 L 622,525 L 616,523 L 610,514 L 608,506 Z M 397,404 L 391,408 L 385,416 L 385,428 L 390,436 L 397,439 L 407,439 L 412,437 L 418,431 L 418,429 L 421,425 L 421,418 L 417,410 L 412,405 L 410,404 Z M 400,404 L 410,405 L 417,411 L 420,418 L 420,425 L 418,430 L 411,437 L 405,439 L 399,439 L 393,437 L 388,432 L 385,425 L 385,419 L 389,411 L 392,408 Z M 386,389 L 374,392 L 370,395 L 364,397 L 359,400 L 350,410 L 344,423 L 344,427 L 342,431 L 342,445 L 344,450 L 344,455 L 349,464 L 363,478 L 370,482 L 377,483 L 381,485 L 395,486 L 403,483 L 410,482 L 414,479 L 418,478 L 429,467 L 438,450 L 438,429 L 434,420 L 434,417 L 430,410 L 416,396 L 407,391 L 402,391 L 395,389 Z M 378,392 L 382,391 L 401,391 L 405,392 L 409,395 L 413,396 L 429,411 L 433,418 L 434,425 L 437,432 L 437,446 L 433,458 L 426,468 L 415,478 L 413,478 L 406,482 L 394,483 L 393,484 L 374,482 L 368,478 L 364,477 L 350,463 L 345,454 L 344,430 L 345,429 L 345,424 L 350,413 L 353,410 L 354,407 L 362,400 L 369,396 L 372,396 Z M 346,341 L 340,345 L 331,348 L 323,354 L 320,355 L 297,375 L 284,392 L 284,394 L 275,406 L 267,426 L 267,431 L 263,440 L 262,450 L 260,456 L 260,463 L 259,464 L 259,506 L 260,507 L 260,523 L 261,524 L 262,553 L 263,554 L 262,600 L 261,601 L 261,608 L 258,619 L 258,628 L 254,637 L 253,647 L 250,652 L 249,667 L 251,669 L 259,687 L 262,690 L 262,692 L 267,700 L 283,721 L 298,738 L 332,766 L 344,772 L 347,775 L 351,776 L 354,779 L 358,780 L 362,783 L 373,788 L 382,790 L 388,794 L 396,795 L 406,799 L 411,799 L 417,802 L 435,803 L 443,806 L 453,806 L 454,807 L 492,806 L 496,804 L 503,803 L 505,800 L 505,760 L 506,759 L 505,719 L 506,718 L 506,709 L 505,707 L 500,705 L 498,706 L 467,706 L 463,705 L 459,701 L 459,698 L 464,693 L 491,693 L 492,694 L 513,694 L 514,695 L 604,695 L 610,693 L 631,692 L 640,688 L 645,688 L 651,684 L 654,684 L 672,674 L 692,653 L 697,646 L 697,644 L 701,640 L 703,634 L 706,631 L 707,626 L 711,621 L 711,617 L 715,608 L 715,600 L 708,599 L 707,600 L 694,600 L 692,601 L 690,604 L 687,616 L 682,625 L 675,632 L 667,635 L 659,633 L 654,629 L 646,620 L 641,609 L 637,608 L 632,614 L 627,625 L 619,635 L 615,638 L 603,638 L 601,637 L 591,627 L 588,622 L 586,615 L 581,610 L 577,612 L 574,621 L 564,633 L 557,637 L 549,637 L 539,628 L 532,615 L 532,611 L 530,609 L 527,609 L 516,623 L 510,628 L 503,630 L 499,630 L 495,628 L 490,623 L 485,615 L 484,607 L 480,596 L 476,594 L 473,594 L 466,590 L 463,590 L 460,587 L 454,585 L 450,581 L 445,579 L 438,571 L 439,566 L 443,563 L 446,564 L 458,576 L 464,578 L 466,580 L 479,586 L 483,586 L 495,590 L 506,591 L 522,595 L 534,595 L 535,596 L 564,596 L 565,597 L 646,596 L 647,595 L 656,595 L 657,594 L 665,594 L 666,593 L 674,593 L 675,592 L 690,592 L 709,587 L 716,587 L 719,584 L 719,573 L 720,572 L 721,526 L 720,525 L 720,508 L 719,507 L 719,503 L 715,495 L 715,490 L 711,483 L 710,476 L 708,474 L 706,468 L 703,465 L 701,460 L 687,441 L 666,422 L 657,417 L 647,409 L 643,408 L 637,404 L 634,404 L 630,401 L 625,400 L 618,396 L 611,395 L 607,392 L 596,391 L 586,387 L 574,386 L 560,382 L 551,382 L 546,376 L 547,372 L 550,369 L 553,368 L 562,369 L 564,368 L 564,365 L 548,350 L 541,347 L 539,345 L 535,344 L 531,341 L 528,341 L 522,337 L 504,335 L 503,334 L 479,334 L 474,336 L 466,336 L 458,338 L 456,342 L 471,354 L 474,358 L 474,361 L 468,366 L 463,365 L 457,359 L 446,351 L 442,350 L 426,341 L 420,340 L 415,337 L 399,336 L 393,334 L 375,334 L 371,336 L 360,337 L 351,341 Z M 351,341 L 356,341 L 366,337 L 372,337 L 373,336 L 406,337 L 414,340 L 422,341 L 437,348 L 441,351 L 443,351 L 453,359 L 456,360 L 459,364 L 465,368 L 468,368 L 475,363 L 475,356 L 459,342 L 462,339 L 468,337 L 475,337 L 476,336 L 509,336 L 510,337 L 515,337 L 523,341 L 529,342 L 531,344 L 533,344 L 551,354 L 558,361 L 560,365 L 558,367 L 552,367 L 548,368 L 546,370 L 545,377 L 548,382 L 556,383 L 565,386 L 583,388 L 589,391 L 601,392 L 607,395 L 616,397 L 621,400 L 626,401 L 630,404 L 636,405 L 639,408 L 644,409 L 648,413 L 652,414 L 656,418 L 659,419 L 676,432 L 691,448 L 692,451 L 701,463 L 706,472 L 707,476 L 709,478 L 711,487 L 714,492 L 718,508 L 718,514 L 719,515 L 719,569 L 718,570 L 718,582 L 715,586 L 701,587 L 687,591 L 656,592 L 655,593 L 641,594 L 640,595 L 540,595 L 539,594 L 508,591 L 507,590 L 498,589 L 494,587 L 484,586 L 461,576 L 458,573 L 455,572 L 447,563 L 440,563 L 438,564 L 437,572 L 441,578 L 450,582 L 453,585 L 462,590 L 464,590 L 471,594 L 477,595 L 480,598 L 481,604 L 484,610 L 485,617 L 490,625 L 497,630 L 506,630 L 511,628 L 529,610 L 532,613 L 533,619 L 535,621 L 537,627 L 541,632 L 546,636 L 553,638 L 559,637 L 565,633 L 571,627 L 576,619 L 577,614 L 579,612 L 581,612 L 586,617 L 588,624 L 591,627 L 592,630 L 598,636 L 604,639 L 616,638 L 622,633 L 628,623 L 631,620 L 632,616 L 638,609 L 642,612 L 642,614 L 647,623 L 656,632 L 662,635 L 667,636 L 677,632 L 681,628 L 683,623 L 687,618 L 687,615 L 690,610 L 691,604 L 694,601 L 713,600 L 715,602 L 714,608 L 711,613 L 710,621 L 708,623 L 705,631 L 702,634 L 702,636 L 698,641 L 696,646 L 684,661 L 674,671 L 664,678 L 643,688 L 639,688 L 626,692 L 615,692 L 614,693 L 605,693 L 604,694 L 508,694 L 507,693 L 481,693 L 480,692 L 468,692 L 461,694 L 458,699 L 461,705 L 464,706 L 502,706 L 505,710 L 504,801 L 502,803 L 497,803 L 490,805 L 455,806 L 454,805 L 445,805 L 438,803 L 422,802 L 414,799 L 405,798 L 398,795 L 388,793 L 384,790 L 375,788 L 364,783 L 360,780 L 354,778 L 344,771 L 342,771 L 337,767 L 335,767 L 328,760 L 307,744 L 290,727 L 280,715 L 263,691 L 263,689 L 260,685 L 250,663 L 251,656 L 254,649 L 255,641 L 258,634 L 259,622 L 262,614 L 262,604 L 263,603 L 264,549 L 263,548 L 263,525 L 262,524 L 262,504 L 261,503 L 261,494 L 260,493 L 260,477 L 261,476 L 262,453 L 267,436 L 268,427 L 271,422 L 272,416 L 275,412 L 276,407 L 280,403 L 286,392 L 294,381 L 310,365 L 321,356 L 334,348 Z M 331,333 L 326,337 L 324,337 L 315,342 L 301,352 L 277,378 L 269,390 L 267,396 L 265,398 L 263,404 L 255,418 L 254,425 L 250,436 L 250,441 L 246,458 L 246,473 L 245,474 L 246,518 L 247,519 L 247,530 L 248,531 L 248,542 L 249,543 L 249,587 L 247,595 L 246,611 L 245,612 L 244,622 L 242,626 L 241,635 L 239,637 L 237,637 L 235,635 L 231,634 L 228,635 L 226,638 L 226,644 L 228,648 L 229,655 L 232,660 L 232,663 L 236,669 L 241,682 L 250,699 L 253,702 L 254,705 L 268,725 L 279,738 L 302,760 L 313,768 L 326,776 L 329,779 L 332,780 L 335,783 L 337,783 L 342,787 L 344,787 L 348,790 L 358,794 L 360,796 L 365,797 L 372,801 L 380,803 L 383,805 L 389,806 L 398,810 L 406,811 L 413,814 L 434,816 L 442,818 L 449,818 L 450,819 L 486,819 L 487,818 L 494,818 L 495,817 L 501,817 L 508,815 L 515,815 L 532,810 L 536,810 L 544,806 L 551,805 L 556,802 L 562,801 L 566,798 L 579,793 L 587,788 L 591,787 L 594,784 L 598,783 L 602,779 L 617,770 L 633,757 L 662,726 L 663,723 L 667,719 L 681,699 L 682,695 L 685,692 L 687,686 L 690,683 L 695,669 L 706,657 L 710,651 L 710,649 L 713,646 L 726,617 L 728,606 L 732,595 L 733,576 L 734,575 L 734,568 L 735,567 L 735,550 L 736,549 L 735,524 L 734,523 L 734,517 L 732,510 L 732,503 L 728,491 L 727,483 L 724,477 L 723,472 L 714,455 L 700,435 L 684,419 L 666,405 L 663,404 L 660,401 L 656,400 L 653,397 L 649,396 L 635,388 L 606,378 L 602,378 L 587,374 L 576,357 L 558,340 L 546,332 L 525,324 L 505,321 L 504,320 L 480,320 L 479,321 L 474,321 L 473,322 L 460,324 L 454,327 L 447,328 L 442,331 L 435,331 L 430,328 L 427,328 L 417,324 L 413,324 L 407,322 L 379,320 L 378,321 L 372,321 L 361,324 L 351,325 Z M 356,324 L 364,324 L 377,321 L 393,321 L 401,323 L 415,324 L 424,328 L 429,328 L 436,332 L 442,332 L 448,328 L 456,327 L 465,323 L 473,323 L 474,322 L 486,321 L 487,320 L 499,320 L 511,323 L 524,324 L 529,327 L 536,328 L 542,332 L 547,333 L 564,346 L 576,358 L 586,374 L 598,378 L 608,379 L 613,382 L 621,383 L 627,387 L 631,387 L 660,402 L 673,411 L 684,420 L 704,441 L 709,448 L 715,460 L 718,463 L 718,465 L 723,473 L 723,477 L 727,484 L 728,494 L 731,499 L 732,518 L 735,531 L 735,558 L 734,559 L 733,575 L 732,576 L 732,594 L 728,603 L 727,613 L 724,617 L 723,624 L 719,629 L 718,635 L 714,640 L 714,643 L 705,657 L 695,668 L 694,673 L 691,677 L 689,683 L 686,686 L 686,689 L 682,694 L 682,696 L 678,701 L 676,706 L 668,715 L 656,732 L 645,744 L 627,761 L 610,774 L 582,791 L 575,793 L 569,797 L 564,798 L 558,802 L 554,802 L 549,805 L 542,806 L 534,810 L 525,811 L 518,814 L 503,815 L 502,816 L 496,816 L 495,817 L 482,818 L 481,819 L 457,819 L 456,818 L 448,818 L 442,816 L 415,814 L 410,811 L 399,810 L 395,807 L 387,806 L 380,802 L 373,801 L 367,797 L 364,797 L 355,792 L 351,791 L 348,788 L 343,787 L 340,784 L 335,782 L 326,775 L 311,766 L 293,751 L 272,729 L 258,710 L 258,708 L 254,704 L 249,694 L 246,691 L 245,687 L 241,681 L 241,678 L 237,672 L 236,667 L 232,662 L 232,658 L 228,651 L 228,646 L 226,641 L 227,638 L 230,635 L 233,635 L 236,638 L 240,638 L 242,635 L 242,628 L 245,621 L 246,607 L 247,606 L 247,601 L 249,595 L 249,587 L 250,586 L 250,545 L 249,544 L 248,522 L 246,515 L 246,462 L 250,445 L 250,437 L 254,428 L 255,419 L 258,416 L 259,411 L 263,406 L 263,403 L 267,398 L 268,393 L 271,390 L 272,386 L 281,374 L 302,352 L 316,342 L 320,341 L 323,338 L 329,336 L 332,333 L 335,333 L 341,329 L 348,328 Z" fill="#394238" stroke="#222" fill-rule="evenodd" stroke-width="4" stroke-linejoin="round" />
<path d="M 663,696 L 660,696 L 658,698 L 653,699 L 648,702 L 641,703 L 635,706 L 613,708 L 612,709 L 598,709 L 597,710 L 550,710 L 549,709 L 535,709 L 533,710 L 536,713 L 543,714 L 554,719 L 567,733 L 573,747 L 573,769 L 566,776 L 560,776 L 556,774 L 552,774 L 542,784 L 537,784 L 527,775 L 525,768 L 521,767 L 520,796 L 521,797 L 526,797 L 539,792 L 543,792 L 552,787 L 555,787 L 560,784 L 565,783 L 599,764 L 621,747 L 640,728 L 658,707 L 663,700 Z M 663,698 L 659,705 L 636,732 L 625,743 L 604,760 L 587,771 L 562,784 L 559,784 L 542,792 L 535,793 L 526,797 L 523,797 L 520,794 L 521,793 L 521,771 L 523,769 L 526,771 L 527,776 L 536,784 L 544,783 L 553,774 L 559,776 L 566,776 L 570,774 L 573,770 L 574,760 L 573,759 L 573,747 L 571,740 L 569,738 L 566,731 L 556,720 L 547,715 L 540,714 L 538,712 L 540,710 L 607,710 L 608,709 L 617,709 L 623,707 L 640,705 L 645,702 L 651,701 L 661,696 Z M 597,611 L 597,615 L 600,618 L 602,623 L 607,627 L 610,627 L 614,624 L 620,613 L 619,610 L 599,610 Z M 597,612 L 599,610 L 617,610 L 619,612 L 619,614 L 615,622 L 610,627 L 607,627 L 601,621 L 601,619 L 597,614 Z M 543,610 L 547,620 L 551,624 L 556,624 L 565,613 L 565,611 L 563,610 L 549,610 L 548,609 L 544,609 Z M 544,612 L 546,610 L 562,610 L 564,613 L 556,624 L 552,624 L 546,618 Z M 676,606 L 655,607 L 654,610 L 657,616 L 664,623 L 668,623 L 672,619 L 673,615 L 677,610 Z M 675,606 L 677,608 L 677,610 L 674,613 L 672,618 L 667,623 L 664,623 L 656,614 L 654,609 L 656,607 Z M 495,603 L 495,608 L 501,618 L 506,617 L 513,609 L 513,606 L 511,605 L 506,605 L 499,602 Z M 495,604 L 498,602 L 505,605 L 511,605 L 513,608 L 505,617 L 501,618 L 498,614 L 498,612 L 495,607 Z M 330,758 L 334,764 L 346,770 L 356,777 L 360,778 L 368,783 L 371,783 L 376,786 L 385,788 L 394,793 L 399,793 L 406,796 L 419,798 L 423,800 L 439,801 L 440,802 L 447,802 L 448,803 L 482,803 L 483,802 L 498,802 L 502,800 L 502,719 L 503,718 L 503,710 L 501,708 L 464,708 L 461,707 L 457,703 L 456,699 L 457,696 L 462,691 L 602,692 L 603,691 L 624,690 L 625,689 L 642,686 L 647,683 L 652,682 L 670,672 L 687,655 L 699,638 L 701,632 L 704,629 L 705,624 L 709,618 L 709,613 L 713,603 L 712,602 L 695,603 L 692,607 L 692,611 L 689,616 L 688,621 L 684,625 L 684,627 L 677,634 L 669,638 L 664,638 L 659,635 L 657,635 L 645,623 L 644,620 L 641,617 L 640,613 L 637,612 L 633,618 L 632,622 L 625,632 L 618,639 L 611,642 L 606,642 L 601,639 L 599,639 L 590,630 L 586,624 L 584,618 L 581,615 L 579,615 L 574,626 L 563,637 L 555,640 L 551,640 L 545,638 L 537,630 L 531,619 L 529,612 L 510,631 L 504,633 L 496,632 L 485,621 L 479,605 L 479,601 L 476,597 L 470,596 L 464,592 L 459,591 L 456,588 L 452,587 L 448,583 L 442,582 L 440,584 L 434,586 L 431,589 L 425,591 L 422,594 L 416,596 L 411,600 L 408,600 L 403,604 L 397,605 L 395,607 L 391,609 L 385,610 L 381,613 L 370,614 L 369,615 L 358,615 L 357,616 L 344,616 L 343,615 L 332,614 L 330,615 L 331,623 L 335,627 L 345,646 L 357,658 L 357,663 L 354,667 L 353,677 L 350,681 L 349,689 L 345,697 L 344,709 L 341,715 L 340,726 L 336,733 L 335,744 L 332,750 Z M 370,712 L 377,711 L 385,714 L 392,714 L 400,718 L 405,719 L 422,736 L 422,738 L 426,745 L 427,769 L 425,776 L 419,781 L 412,781 L 405,777 L 398,785 L 393,788 L 387,788 L 380,782 L 379,777 L 376,773 L 375,768 L 372,764 L 370,758 L 363,754 L 361,754 L 357,750 L 357,744 L 363,739 L 363,727 L 366,716 Z M 332,760 L 332,756 L 336,747 L 336,740 L 341,727 L 341,721 L 345,711 L 345,704 L 349,695 L 350,686 L 354,679 L 354,673 L 359,662 L 358,656 L 345,643 L 344,640 L 341,637 L 340,632 L 337,629 L 335,623 L 331,619 L 333,616 L 336,616 L 339,618 L 364,618 L 365,617 L 370,617 L 375,615 L 383,614 L 390,610 L 396,609 L 402,605 L 405,605 L 409,602 L 417,599 L 420,596 L 422,596 L 427,592 L 433,590 L 443,583 L 447,583 L 457,591 L 462,592 L 468,596 L 474,597 L 479,602 L 479,609 L 483,616 L 484,621 L 489,628 L 496,633 L 507,633 L 513,630 L 522,622 L 523,619 L 528,614 L 530,616 L 531,621 L 533,623 L 536,630 L 544,638 L 552,641 L 555,641 L 563,638 L 574,627 L 578,621 L 578,618 L 581,616 L 585,621 L 585,624 L 590,632 L 598,639 L 603,642 L 614,642 L 619,639 L 625,633 L 638,613 L 641,616 L 641,618 L 649,629 L 661,638 L 671,638 L 678,634 L 684,628 L 689,620 L 689,617 L 692,614 L 693,606 L 695,604 L 707,603 L 708,602 L 710,602 L 712,604 L 709,610 L 709,616 L 705,623 L 705,625 L 702,629 L 700,635 L 696,639 L 695,643 L 688,651 L 687,654 L 667,673 L 662,675 L 659,678 L 654,679 L 652,681 L 645,683 L 641,686 L 631,687 L 615,691 L 480,691 L 479,690 L 466,690 L 459,692 L 456,698 L 457,705 L 459,707 L 462,708 L 476,708 L 477,709 L 496,709 L 500,708 L 502,710 L 502,799 L 500,801 L 496,801 L 495,802 L 445,802 L 444,801 L 431,801 L 418,797 L 411,797 L 402,793 L 393,792 L 391,790 L 399,785 L 405,778 L 411,781 L 420,781 L 425,777 L 427,771 L 427,749 L 426,748 L 426,743 L 423,739 L 422,735 L 406,719 L 401,718 L 394,714 L 387,714 L 381,711 L 377,711 L 376,710 L 369,711 L 366,715 L 362,725 L 361,739 L 357,743 L 357,752 L 367,757 L 371,761 L 372,766 L 376,772 L 376,775 L 382,785 L 380,787 L 373,783 L 367,782 L 364,779 L 359,778 L 356,775 L 352,774 L 349,771 L 337,765 Z M 223,644 L 227,652 L 228,659 L 231,663 L 231,666 L 235,672 L 235,674 L 241,687 L 244,691 L 244,693 L 270,731 L 300,761 L 304,763 L 312,770 L 336,785 L 339,788 L 343,789 L 357,797 L 362,798 L 368,802 L 374,803 L 382,807 L 386,807 L 394,811 L 402,812 L 408,815 L 420,816 L 429,819 L 454,820 L 455,821 L 497,820 L 498,819 L 509,818 L 513,816 L 526,815 L 532,812 L 540,811 L 545,808 L 555,806 L 559,803 L 565,802 L 571,798 L 586,792 L 596,785 L 600,784 L 610,776 L 619,771 L 640,753 L 655,737 L 677,709 L 690,687 L 691,683 L 695,677 L 697,670 L 709,656 L 714,648 L 715,644 L 719,639 L 720,634 L 722,632 L 727,621 L 729,611 L 732,605 L 733,594 L 733,599 L 730,606 L 729,614 L 725,622 L 724,627 L 719,636 L 719,638 L 708,657 L 697,669 L 696,674 L 692,680 L 692,682 L 689,686 L 687,692 L 683,697 L 682,701 L 660,731 L 633,759 L 625,766 L 605,780 L 602,781 L 599,784 L 594,786 L 591,789 L 589,789 L 581,794 L 568,799 L 564,802 L 556,804 L 550,807 L 544,808 L 539,811 L 531,812 L 524,815 L 513,816 L 512,817 L 495,819 L 494,820 L 455,821 L 454,820 L 442,820 L 441,819 L 427,818 L 420,816 L 414,816 L 402,812 L 398,812 L 392,809 L 380,806 L 375,803 L 369,802 L 363,798 L 358,797 L 356,795 L 340,788 L 337,785 L 332,783 L 329,780 L 326,779 L 316,771 L 306,765 L 293,754 L 269,729 L 262,720 L 261,717 L 258,714 L 257,711 L 254,708 L 244,692 L 243,688 L 241,686 L 235,673 L 235,671 L 231,665 L 230,660 L 227,655 L 226,648 L 224,645 L 224,638 L 228,633 L 235,633 L 237,635 L 239,635 L 242,618 L 244,613 L 245,595 L 246,594 L 246,587 L 247,586 L 247,546 L 246,545 L 246,531 L 245,530 L 245,513 L 247,575 L 246,576 L 246,591 L 245,592 L 244,612 L 242,615 L 240,632 L 238,634 L 235,633 L 228,633 L 226,634 L 223,639 Z M 399,406 L 392,410 L 387,418 L 387,426 L 390,432 L 393,435 L 398,437 L 406,437 L 411,435 L 416,430 L 418,425 L 418,418 L 416,412 L 408,406 Z M 400,406 L 406,406 L 413,410 L 416,413 L 418,420 L 416,430 L 409,436 L 405,437 L 400,437 L 394,435 L 390,431 L 387,424 L 387,419 L 390,413 Z M 356,323 L 347,324 L 342,327 L 337,328 L 325,335 L 319,337 L 316,340 L 307,345 L 290,360 L 276,376 L 270,386 L 267,389 L 267,391 L 254,415 L 253,421 L 250,427 L 249,437 L 246,443 L 244,472 L 243,473 L 243,501 L 244,502 L 244,510 L 243,480 L 244,479 L 245,451 L 249,437 L 249,432 L 253,422 L 253,418 L 256,414 L 258,407 L 261,404 L 267,390 L 275,378 L 285,366 L 306,346 L 322,336 L 324,336 L 329,332 L 331,332 L 340,327 L 343,327 L 352,323 Z M 358,322 L 362,322 L 372,319 L 400,319 L 401,320 L 406,320 L 407,321 L 420,323 L 439,330 L 460,322 L 464,322 L 480,318 L 503,318 L 504,319 L 510,319 L 511,320 L 528,323 L 548,331 L 557,337 L 578,357 L 587,372 L 601,375 L 605,377 L 609,377 L 619,381 L 625,382 L 629,385 L 635,386 L 649,394 L 653,395 L 658,399 L 668,404 L 684,417 L 707,441 L 716,455 L 716,457 L 719,460 L 728,480 L 729,487 L 732,494 L 733,504 L 736,516 L 736,523 L 737,524 L 737,568 L 736,569 L 734,592 L 735,582 L 736,581 L 736,573 L 737,572 L 737,520 L 736,519 L 736,512 L 733,503 L 732,493 L 728,483 L 728,479 L 723,467 L 706,439 L 686,418 L 675,409 L 654,395 L 652,395 L 636,386 L 633,386 L 626,382 L 619,381 L 614,378 L 606,377 L 600,374 L 589,373 L 586,370 L 586,368 L 583,365 L 577,355 L 567,345 L 552,333 L 545,330 L 543,328 L 537,327 L 530,323 L 520,322 L 514,319 L 507,319 L 506,318 L 478,318 L 477,319 L 467,320 L 464,322 L 455,323 L 450,326 L 444,327 L 441,329 L 437,329 L 434,327 L 429,327 L 422,323 L 413,322 L 404,319 L 370,319 Z" fill="#a9a496" stroke="#222" fill-rule="evenodd" stroke-width="4" stroke-linejoin="round" />
<path d="M 372,724 L 387,726 L 398,731 L 408,740 L 409,743 L 412,746 L 413,753 L 409,758 L 404,761 L 395,761 L 394,762 L 393,761 L 387,761 L 384,758 L 384,756 L 382,754 L 379,747 L 370,743 L 365,743 L 364,741 L 359,744 L 358,746 L 359,751 L 369,756 L 372,759 L 372,761 L 376,767 L 376,770 L 379,774 L 382,782 L 388,786 L 390,785 L 385,784 L 381,780 L 380,775 L 376,769 L 376,766 L 372,760 L 372,758 L 370,756 L 362,753 L 358,749 L 358,746 L 363,742 L 373,744 L 380,749 L 382,755 L 386,761 L 393,761 L 394,762 L 395,761 L 404,761 L 410,758 L 413,753 L 412,746 L 408,739 L 399,731 L 394,730 L 388,726 Z" fill="none" stroke="#222" stroke-width="4" stroke-linejoin="round" stroke-linecap="round" />
<path d="M 520,725 L 521,726 L 520,727 L 521,742 L 527,747 L 533,758 L 547,759 L 555,756 L 560,751 L 559,750 L 558,742 L 551,732 L 546,729 L 544,729 L 539,725 L 535,724 L 528,724 L 527,723 L 523,724 L 522,723 Z" fill="none" stroke="#222" stroke-width="4" stroke-linejoin="round" stroke-linecap="round" />
<path d="M 520,711 L 528,712 L 532,714 L 545,715 L 548,718 L 552,719 L 566,733 L 572,745 L 572,769 L 568,774 L 566,775 L 559,775 L 556,773 L 555,774 L 552,773 L 547,779 L 544,780 L 541,783 L 537,783 L 527,773 L 526,767 L 522,760 L 522,758 L 522,761 L 525,765 L 527,774 L 536,783 L 542,783 L 545,780 L 548,779 L 552,774 L 557,774 L 558,775 L 567,775 L 569,774 L 572,769 L 572,745 L 571,741 L 567,736 L 566,732 L 558,723 L 553,719 L 551,719 L 545,715 L 540,715 L 535,713 L 529,713 L 528,712 Z" fill="none" stroke="#222" stroke-width="4" stroke-linejoin="round" stroke-linecap="round" />
<path d="M 668,693 L 662,693 L 661,695 L 656,698 L 646,702 L 638,703 L 634,706 L 610,707 L 605,709 L 595,709 L 594,710 L 547,710 L 546,709 L 542,709 L 539,707 L 521,707 L 519,708 L 520,709 L 522,707 L 539,707 L 542,709 L 546,709 L 547,710 L 594,710 L 595,709 L 605,709 L 610,707 L 634,706 L 638,703 L 650,701 L 654,698 L 659,697 L 663,693 L 667,693 L 668,694 L 645,723 L 632,737 L 616,752 L 613,753 L 604,761 L 601,762 L 587,772 L 578,776 L 567,783 L 559,785 L 549,789 L 547,791 L 538,793 L 530,797 L 523,798 L 519,795 L 519,782 L 520,781 L 519,779 L 519,758 L 518,760 L 519,761 L 519,779 L 520,780 L 519,782 L 519,795 L 523,798 L 530,797 L 536,795 L 538,793 L 548,791 L 550,789 L 562,784 L 568,783 L 573,779 L 575,779 L 588,772 L 602,762 L 605,761 L 614,753 L 617,752 L 645,724 L 659,707 L 661,703 L 668,696 Z" fill="none" stroke="#222" stroke-width="4" stroke-linejoin="round" stroke-linecap="round" />
<path d="M 698,500 L 693,501 L 689,504 L 684,512 L 683,520 L 688,525 L 695,523 L 700,517 L 702,505 L 701,502 Z" fill="none" stroke="#222" stroke-width="4" stroke-linejoin="round" stroke-linecap="round" />
<path d="M 610,501 L 607,505 L 608,506 L 607,508 L 610,516 L 616,524 L 619,526 L 623,526 L 627,522 L 627,514 L 625,510 L 618,501 L 615,500 Z" fill="none" stroke="#222" stroke-width="4" stroke-linejoin="round" stroke-linecap="round" />
<path d="M 373,393 L 371,395 L 367,396 L 355,405 L 350,411 L 348,417 L 345,421 L 344,435 L 343,436 L 345,456 L 354,469 L 364,478 L 368,479 L 370,481 L 378,483 L 385,483 L 390,485 L 394,483 L 408,482 L 414,478 L 418,477 L 427,468 L 433,460 L 434,455 L 436,452 L 435,451 L 437,449 L 437,442 L 438,441 L 437,428 L 435,425 L 433,416 L 426,406 L 415,396 L 413,396 L 403,391 L 381,391 Z" fill="none" stroke="#222" stroke-width="4" stroke-linejoin="round" stroke-linecap="round" />
<path d="M 672,427 L 654,414 L 649,412 L 646,409 L 644,409 L 638,405 L 633,404 L 629,401 L 623,400 L 617,396 L 610,395 L 605,392 L 593,391 L 584,387 L 575,387 L 563,383 L 550,382 L 546,378 L 545,375 L 552,368 L 557,368 L 558,369 L 564,368 L 560,369 L 552,368 L 549,369 L 545,375 L 548,381 L 556,383 L 563,383 L 575,387 L 584,387 L 593,391 L 605,392 L 609,395 L 616,396 L 623,400 L 626,400 L 630,403 L 635,404 L 653,414 L 671,427 L 690,446 L 700,460 L 711,481 L 712,487 L 715,492 L 716,502 L 719,506 L 719,519 L 720,520 L 720,525 L 719,526 L 719,531 L 720,532 L 719,580 L 718,583 L 715,586 L 700,588 L 692,591 L 667,592 L 666,593 L 659,593 L 658,594 L 651,594 L 650,595 L 640,595 L 639,596 L 545,596 L 544,595 L 528,595 L 517,592 L 496,590 L 491,587 L 481,586 L 462,577 L 445,563 L 442,563 L 438,566 L 438,572 L 440,576 L 445,581 L 447,581 L 451,585 L 457,587 L 460,590 L 462,590 L 471,595 L 475,595 L 478,597 L 480,601 L 480,605 L 484,611 L 484,615 L 489,625 L 495,630 L 503,631 L 511,629 L 522,619 L 526,614 L 526,612 L 529,611 L 531,613 L 536,627 L 544,636 L 549,638 L 556,638 L 563,636 L 573,626 L 577,619 L 578,613 L 580,611 L 583,614 L 592,631 L 598,637 L 606,640 L 616,639 L 627,628 L 637,610 L 641,612 L 641,614 L 647,624 L 656,633 L 667,637 L 677,633 L 682,628 L 687,620 L 687,617 L 690,613 L 691,607 L 694,602 L 710,600 L 715,604 L 711,610 L 710,619 L 706,624 L 706,627 L 702,633 L 700,639 L 683,661 L 670,673 L 644,687 L 634,688 L 630,691 L 599,692 L 598,693 L 510,693 L 509,692 L 463,692 L 461,693 L 458,697 L 458,702 L 462,706 L 466,706 L 467,707 L 501,707 L 503,709 L 504,712 L 504,721 L 503,722 L 503,800 L 499,803 L 486,803 L 480,805 L 465,805 L 463,806 L 462,805 L 450,805 L 441,802 L 438,803 L 436,802 L 425,802 L 415,798 L 408,798 L 401,795 L 393,794 L 385,791 L 383,789 L 377,788 L 375,786 L 372,786 L 335,766 L 330,761 L 326,760 L 306,744 L 290,728 L 279,715 L 263,692 L 258,683 L 257,679 L 254,675 L 253,671 L 250,667 L 250,654 L 254,647 L 255,636 L 254,647 L 250,654 L 250,667 L 259,684 L 259,686 L 266,696 L 266,698 L 270,702 L 271,705 L 283,721 L 305,744 L 325,760 L 329,761 L 334,766 L 338,767 L 341,770 L 343,770 L 353,777 L 359,779 L 371,786 L 383,789 L 384,791 L 389,793 L 401,795 L 408,798 L 415,798 L 425,802 L 436,802 L 437,803 L 441,802 L 450,805 L 462,805 L 463,806 L 465,805 L 480,805 L 486,803 L 499,803 L 503,801 L 503,722 L 504,721 L 503,708 L 502,707 L 467,707 L 463,706 L 458,701 L 458,698 L 462,693 L 464,692 L 598,693 L 599,692 L 630,691 L 634,688 L 639,688 L 647,686 L 650,683 L 653,683 L 671,673 L 688,656 L 695,647 L 696,644 L 700,640 L 701,635 L 704,632 L 706,625 L 709,622 L 711,611 L 715,604 L 713,601 L 710,600 L 694,602 L 692,604 L 691,610 L 688,614 L 687,619 L 682,627 L 676,633 L 667,637 L 657,633 L 647,623 L 641,614 L 641,611 L 640,610 L 639,611 L 637,609 L 627,627 L 615,639 L 606,640 L 599,637 L 592,630 L 588,624 L 586,618 L 583,615 L 582,611 L 578,612 L 577,619 L 574,622 L 573,625 L 562,636 L 556,638 L 549,638 L 545,636 L 536,626 L 531,615 L 530,610 L 528,611 L 527,609 L 526,613 L 522,618 L 510,629 L 503,631 L 494,629 L 489,624 L 484,615 L 484,611 L 483,608 L 480,605 L 480,600 L 478,596 L 471,595 L 469,593 L 461,590 L 446,581 L 440,575 L 438,571 L 438,567 L 442,563 L 445,563 L 455,573 L 461,577 L 465,578 L 468,581 L 471,581 L 477,585 L 491,587 L 496,590 L 517,592 L 528,595 L 544,595 L 545,596 L 639,596 L 640,595 L 650,595 L 651,594 L 658,594 L 659,593 L 666,593 L 667,592 L 692,591 L 700,588 L 716,586 L 719,580 L 719,549 L 720,548 L 719,506 L 716,502 L 715,492 L 711,484 L 710,478 L 704,466 L 690,445 Z" fill="none" stroke="#222" stroke-width="4" stroke-linejoin="round" stroke-linecap="round" />
<path d="M 462,345 L 460,345 L 457,342 L 456,343 L 461,345 L 474,357 L 474,362 L 472,364 L 466,366 L 461,364 L 451,355 L 436,346 L 431,345 L 425,341 L 418,340 L 413,337 L 403,337 L 402,336 L 369,336 L 368,337 L 361,337 L 354,341 L 345,342 L 341,345 L 333,347 L 330,350 L 325,352 L 308,365 L 289,385 L 283,396 L 276,405 L 271,419 L 268,424 L 267,433 L 263,440 L 262,456 L 259,465 L 259,505 L 261,510 L 262,531 L 263,532 L 262,534 L 262,539 L 263,540 L 263,588 L 262,589 L 262,608 L 259,613 L 259,622 L 258,623 L 257,635 L 258,623 L 259,622 L 259,613 L 262,608 L 262,589 L 263,588 L 263,540 L 262,539 L 263,532 L 262,531 L 261,510 L 259,505 L 259,465 L 262,456 L 263,440 L 266,436 L 269,422 L 271,420 L 271,417 L 276,406 L 283,397 L 289,386 L 309,365 L 320,356 L 336,346 L 341,345 L 349,341 L 357,340 L 361,337 L 368,337 L 369,336 L 413,337 L 416,340 L 425,341 L 427,343 L 444,351 L 454,358 L 460,364 L 464,366 L 465,365 L 469,366 L 474,363 L 474,356 Z" fill="none" stroke="#222" stroke-width="4" stroke-linejoin="round" stroke-linecap="round" />
<path d="M 373,319 L 372,320 L 368,320 L 362,323 L 350,324 L 345,327 L 339,328 L 335,331 L 325,335 L 307,346 L 290,361 L 271,384 L 266,395 L 263,398 L 262,403 L 260,405 L 257,413 L 254,416 L 253,426 L 250,429 L 248,445 L 250,429 L 253,426 L 254,418 L 257,414 L 258,409 L 260,407 L 263,399 L 266,396 L 266,394 L 271,385 L 290,362 L 304,349 L 331,332 L 333,332 L 340,328 L 346,327 L 350,324 L 362,323 L 368,320 L 372,320 L 373,319 L 399,319 L 413,323 L 420,323 L 424,326 L 430,327 L 435,330 L 440,331 L 447,327 L 454,326 L 458,323 L 468,322 L 474,319 L 494,318 L 495,319 L 509,319 L 516,322 L 527,323 L 534,327 L 538,327 L 540,329 L 548,332 L 565,345 L 577,357 L 587,373 L 595,374 L 602,377 L 611,378 L 616,381 L 623,382 L 625,384 L 633,386 L 640,390 L 642,390 L 647,394 L 653,396 L 658,400 L 660,400 L 684,418 L 701,435 L 711,448 L 711,450 L 718,460 L 719,464 L 724,472 L 724,475 L 728,483 L 728,488 L 732,495 L 733,510 L 735,512 L 736,516 L 736,524 L 737,525 L 737,566 L 733,582 L 732,601 L 729,606 L 728,616 L 724,622 L 724,625 L 719,634 L 718,638 L 715,642 L 714,646 L 707,657 L 697,668 L 695,674 L 687,688 L 687,690 L 676,708 L 659,731 L 633,758 L 617,771 L 614,772 L 591,788 L 587,789 L 585,791 L 562,802 L 556,803 L 552,806 L 544,807 L 537,811 L 528,812 L 523,815 L 507,816 L 506,817 L 502,817 L 499,819 L 490,819 L 489,820 L 443,820 L 442,819 L 436,819 L 433,817 L 429,817 L 428,816 L 410,815 L 406,812 L 396,811 L 392,808 L 381,806 L 378,803 L 371,802 L 369,800 L 365,798 L 362,798 L 354,793 L 351,793 L 348,790 L 344,789 L 335,784 L 302,761 L 278,738 L 267,725 L 253,705 L 252,702 L 249,699 L 248,695 L 241,685 L 240,680 L 237,676 L 237,674 L 228,655 L 227,647 L 224,643 L 224,640 L 228,634 L 233,633 L 237,638 L 238,637 L 235,634 L 231,633 L 227,634 L 224,638 L 225,639 L 224,643 L 226,645 L 225,647 L 227,649 L 228,656 L 232,666 L 236,672 L 237,677 L 240,680 L 241,686 L 248,696 L 249,700 L 252,703 L 262,719 L 278,739 L 301,761 L 315,770 L 319,774 L 322,775 L 334,784 L 336,784 L 341,788 L 343,788 L 349,792 L 357,795 L 359,797 L 366,799 L 371,802 L 374,802 L 381,806 L 389,807 L 396,811 L 406,812 L 410,815 L 428,816 L 429,817 L 433,817 L 436,819 L 442,819 L 443,820 L 489,820 L 490,819 L 499,819 L 502,817 L 506,817 L 507,816 L 523,815 L 528,812 L 537,811 L 544,807 L 552,806 L 560,802 L 563,802 L 569,798 L 574,797 L 576,795 L 582,793 L 590,788 L 592,788 L 595,785 L 600,783 L 609,776 L 618,771 L 634,758 L 658,733 L 676,709 L 695,675 L 695,672 L 707,658 L 714,647 L 714,645 L 718,639 L 719,634 L 721,632 L 728,616 L 729,606 L 732,601 L 733,582 L 737,566 L 737,525 L 736,524 L 736,516 L 735,512 L 733,510 L 732,495 L 728,488 L 727,479 L 724,475 L 723,469 L 719,464 L 719,461 L 711,449 L 711,447 L 700,433 L 685,418 L 667,404 L 659,400 L 654,396 L 648,394 L 636,387 L 631,386 L 623,382 L 616,381 L 611,378 L 602,377 L 595,374 L 588,373 L 582,365 L 582,363 L 578,359 L 577,356 L 559,339 L 545,330 L 543,330 L 538,327 L 535,327 L 527,323 L 516,322 L 509,319 L 495,319 L 494,318 L 474,319 L 468,322 L 458,323 L 450,327 L 447,327 L 440,331 L 438,331 L 434,328 L 427,327 L 420,323 L 413,323 L 399,319 Z" fill="none" stroke="#222" stroke-width="4" stroke-linejoin="round" stroke-linecap="round" />
</svg>