<svg xmlns="http://www.w3.org/2000/svg" viewBox="0 0 120 120">
  <circle cx="60" cy="60" r="56" fill="#dff5e6" stroke="#20503b" stroke-width="4"/>
  <path d="M30 76c0-28 20-48 46-48 16 0 30 8 38 20-4 20-18 34-30 38 6 4 10 10 10 14-12 8-32 12-48 8-12-4-16-14-16-32z" fill="#3fa766" stroke="#20503b" stroke-width="4" stroke-linejoin="round"/>
  <path d="M48 68c0-14 12-28 26-30 10 0 18 6 22 14-4 12-12 20-22 24-12 4-26 2-26-8z" fill="#69c585" stroke="#20503b" stroke-width="4" stroke-linejoin="round"/>
  <path d="M54 88c-2 6 0 12 4 16" fill="none" stroke="#20503b" stroke-width="4" stroke-linecap="round"/>
  <path d="M72 86c6 4 14 4 20-2" fill="none" stroke="#1b1b1b" stroke-width="4" stroke-linecap="round"/>
  <circle cx="78" cy="58" r="5" fill="#1b1b1b"/>
  <path d="M62 64c-6-6-16-6-22 0" fill="none" stroke="#20503b" stroke-width="4" stroke-linecap="round"/>
  <path d="M50 80l-10 8" fill="none" stroke="#20503b" stroke-width="4" stroke-linecap="round"/>
  <path d="M58 78l-6 10" fill="none" stroke="#20503b" stroke-width="4" stroke-linecap="round"/>
  <path d="M88 60l10-6" fill="none" stroke="#20503b" stroke-width="4" stroke-linecap="round"/>
</svg>
