<svg xmlns="http://www.w3.org/2000/svg" width="473" height="450" viewBox="0 0 473 450">
<path d="M 126,204 L 120,217 L 119,222 L 117,225 L 116,232 L 114,235 L 113,245 L 111,251 L 111,261 L 110,262 L 110,289 L 111,290 L 111,295 L 108,303 L 103,310 L 99,323 L 98,342 L 101,352 L 105,360 L 111,367 L 124,374 L 130,374 L 135,376 L 143,386 L 154,396 L 155,396 L 154,392 L 155,374 L 160,357 L 166,345 L 179,326 L 196,309 L 206,301 L 222,260 L 232,250 L 243,251 L 248,256 L 253,266 L 257,280 L 262,290 L 266,302 L 274,308 L 294,328 L 305,344 L 316,369 L 316,375 L 317,376 L 317,392 L 316,393 L 316,397 L 321,394 L 328,387 L 336,376 L 347,374 L 357,370 L 365,363 L 369,357 L 374,340 L 374,330 L 372,325 L 372,320 L 370,316 L 370,313 L 361,298 L 361,285 L 362,284 L 361,255 L 360,254 L 358,238 L 356,234 L 355,226 L 346,204 L 344,204 L 340,211 L 336,215 L 330,217 L 319,217 L 315,215 L 309,214 L 297,207 L 286,197 L 278,183 L 277,179 L 278,170 L 285,162 L 280,159 L 269,158 L 265,156 L 245,155 L 244,154 L 216,155 L 215,156 L 207,156 L 197,159 L 191,159 L 187,161 L 187,163 L 192,168 L 194,172 L 194,182 L 192,185 L 192,188 L 186,197 L 174,208 L 161,215 L 153,217 L 141,217 L 136,215 L 131,210 L 129,205 Z M 306,250 L 321,250 L 324,251 L 330,255 L 335,260 L 338,265 L 340,279 L 336,290 L 327,299 L 317,303 L 308,303 L 301,300 L 289,289 L 287,284 L 286,274 L 290,262 L 296,255 Z M 151,250 L 167,250 L 173,253 L 180,259 L 183,263 L 185,269 L 185,284 L 183,289 L 174,298 L 163,303 L 152,302 L 144,298 L 137,291 L 133,282 L 132,275 L 133,274 L 133,269 L 136,262 L 142,255 Z M 47,157 L 37,184 L 37,189 L 35,194 L 34,205 L 32,211 L 32,250 L 33,251 L 34,262 L 36,267 L 38,279 L 41,286 L 41,289 L 43,291 L 44,296 L 56,321 L 61,326 L 68,330 L 78,333 L 82,333 L 83,332 L 84,318 L 88,307 L 95,294 L 95,289 L 94,288 L 94,266 L 95,265 L 95,257 L 96,256 L 97,242 L 98,241 L 100,227 L 102,224 L 102,221 L 107,208 L 120,186 L 116,174 L 116,170 L 114,166 L 114,159 L 113,158 L 113,149 L 112,148 L 112,117 L 116,102 L 118,98 L 125,91 L 129,89 L 135,89 L 140,91 L 145,96 L 150,111 L 159,129 L 173,148 L 177,148 L 188,144 L 193,144 L 203,141 L 211,141 L 217,139 L 252,139 L 253,140 L 260,140 L 261,141 L 270,141 L 275,143 L 284,144 L 294,148 L 299,148 L 310,133 L 317,119 L 319,117 L 327,96 L 334,90 L 338,90 L 339,89 L 345,90 L 349,92 L 353,96 L 357,104 L 360,115 L 360,129 L 361,130 L 360,134 L 360,151 L 359,152 L 359,158 L 358,159 L 358,165 L 356,170 L 356,174 L 353,180 L 353,187 L 359,196 L 371,223 L 371,227 L 374,237 L 374,242 L 376,247 L 376,256 L 377,257 L 377,266 L 378,267 L 378,289 L 377,290 L 377,295 L 381,301 L 387,315 L 389,323 L 389,332 L 392,333 L 393,332 L 401,331 L 411,326 L 416,321 L 430,291 L 434,275 L 436,271 L 438,256 L 439,255 L 440,217 L 439,216 L 439,206 L 437,200 L 435,184 L 424,155 L 417,141 L 400,117 L 374,91 L 345,71 L 313,56 L 310,56 L 297,51 L 293,51 L 290,49 L 285,49 L 275,46 L 269,46 L 264,44 L 221,43 L 220,44 L 206,44 L 196,47 L 186,48 L 183,50 L 178,50 L 160,56 L 157,58 L 154,58 L 149,61 L 146,61 L 119,76 L 102,88 L 89,99 L 78,110 L 66,125 L 53,145 Z" fill="#6ea06d" stroke="#222" fill-rule="evenodd" stroke-width="4" stroke-linejoin="round" />
<path d="M 235,269 L 234,274 L 232,276 L 231,281 L 226,291 L 226,294 L 218,313 L 218,319 L 225,324 L 233,325 L 234,326 L 240,326 L 251,322 L 255,317 L 246,295 L 246,292 L 238,274 L 238,271 L 237,269 Z M 131,108 L 129,113 L 128,133 L 127,134 L 128,136 L 129,159 L 135,181 L 143,199 L 145,201 L 151,201 L 157,199 L 169,192 L 175,185 L 178,176 L 163,160 L 151,145 L 142,131 L 135,116 L 135,114 L 133,112 L 133,109 Z M 340,107 L 332,127 L 321,145 L 307,162 L 294,175 L 294,179 L 297,185 L 303,192 L 315,199 L 322,201 L 326,201 L 329,198 L 337,181 L 337,178 L 340,172 L 341,163 L 343,159 L 343,149 L 344,148 L 344,141 L 345,140 L 345,126 L 344,125 L 344,118 L 342,114 L 342,110 Z" fill="#fafcfc" stroke="#222" fill-rule="evenodd" stroke-width="4" stroke-linejoin="round" />
<path d="M 203,349 L 198,355 L 198,364 L 203,370 L 210,370 L 214,367 L 216,363 L 216,356 L 212,350 L 210,349 Z M 204,349 L 210,349 L 215,354 L 216,357 L 215,365 L 210,370 L 204,370 L 198,363 L 198,356 Z M 265,348 L 262,349 L 257,354 L 256,363 L 260,369 L 262,370 L 269,370 L 273,366 L 274,356 L 273,353 L 269,349 Z M 262,349 L 270,350 L 274,356 L 273,365 L 268,370 L 262,370 L 257,365 L 256,362 L 257,354 Z M 169,373 L 168,390 L 170,398 L 174,405 L 185,416 L 213,430 L 215,430 L 225,435 L 229,435 L 233,437 L 239,437 L 247,435 L 262,429 L 264,427 L 266,427 L 282,418 L 284,418 L 298,405 L 303,393 L 303,375 L 298,360 L 293,350 L 284,337 L 269,322 L 258,334 L 249,338 L 240,339 L 239,340 L 222,338 L 210,331 L 203,322 L 201,323 L 191,333 L 179,349 L 174,359 L 173,364 L 171,367 L 171,370 Z M 169,374 L 178,351 L 188,337 L 200,324 L 203,323 L 212,333 L 222,338 L 230,339 L 231,340 L 241,340 L 252,337 L 258,334 L 269,323 L 271,323 L 286,340 L 298,360 L 303,377 L 303,392 L 301,399 L 297,406 L 285,417 L 274,422 L 272,424 L 270,424 L 247,435 L 234,437 L 226,435 L 223,433 L 220,433 L 187,417 L 183,414 L 173,403 L 169,395 L 169,391 L 168,390 Z M 449,286 L 445,286 L 444,292 L 442,295 L 438,308 L 431,321 L 433,324 L 437,324 L 447,320 L 451,316 L 454,310 L 455,298 L 452,290 Z M 448,286 L 451,289 L 455,300 L 453,312 L 445,321 L 435,324 L 432,320 L 438,308 L 444,290 Z M 24,286 L 20,290 L 17,299 L 17,305 L 19,312 L 25,320 L 34,324 L 40,324 L 41,320 L 39,318 L 39,316 L 37,314 L 30,298 L 28,289 L 26,286 Z M 24,286 L 28,290 L 28,293 L 30,296 L 33,306 L 41,321 L 39,324 L 35,324 L 27,321 L 19,312 L 18,303 L 17,302 L 18,295 L 21,289 Z M 306,251 L 296,256 L 291,262 L 287,274 L 288,284 L 290,289 L 301,299 L 308,302 L 317,302 L 327,298 L 335,290 L 339,279 L 337,265 L 334,260 L 324,252 L 321,251 Z M 300,254 L 308,251 L 322,252 L 329,256 L 335,263 L 338,272 L 337,285 L 334,290 L 324,299 L 318,301 L 304,300 L 299,297 L 291,289 L 288,282 L 288,271 L 294,259 Z M 151,251 L 142,256 L 137,262 L 134,269 L 134,274 L 133,275 L 134,282 L 136,288 L 144,297 L 152,301 L 163,302 L 174,297 L 182,289 L 184,284 L 184,269 L 182,263 L 173,254 L 167,251 Z M 153,251 L 165,251 L 168,252 L 176,257 L 182,265 L 184,271 L 183,285 L 181,289 L 173,297 L 168,300 L 164,301 L 151,300 L 145,297 L 139,291 L 135,284 L 134,272 L 136,265 L 143,256 Z M 127,201 L 120,213 L 112,237 L 112,242 L 110,247 L 109,267 L 108,268 L 109,297 L 101,311 L 100,317 L 98,320 L 96,338 L 99,351 L 106,364 L 114,371 L 120,374 L 134,377 L 142,387 L 155,399 L 157,400 L 158,399 L 156,393 L 156,377 L 158,372 L 158,368 L 162,356 L 167,346 L 181,326 L 197,310 L 207,302 L 223,261 L 230,253 L 234,251 L 239,251 L 246,256 L 250,263 L 257,284 L 260,289 L 265,303 L 272,308 L 293,329 L 304,345 L 312,362 L 312,365 L 315,372 L 316,389 L 313,399 L 314,400 L 321,396 L 338,377 L 349,375 L 358,371 L 366,364 L 370,358 L 375,344 L 375,327 L 371,312 L 363,298 L 363,261 L 362,260 L 362,251 L 361,250 L 361,246 L 359,241 L 359,236 L 356,224 L 354,221 L 351,211 L 345,201 L 336,213 L 327,216 L 311,213 L 298,206 L 287,196 L 279,182 L 279,172 L 281,168 L 287,162 L 286,160 L 277,157 L 272,157 L 268,155 L 251,154 L 250,153 L 221,153 L 220,154 L 204,155 L 199,157 L 190,158 L 185,160 L 185,162 L 192,171 L 193,174 L 192,183 L 185,196 L 177,204 L 168,210 L 159,214 L 144,216 L 137,214 L 132,209 L 129,202 Z M 127,203 L 130,205 L 132,210 L 136,214 L 141,216 L 153,216 L 161,214 L 174,207 L 185,197 L 191,188 L 191,185 L 193,182 L 193,172 L 191,168 L 186,163 L 191,158 L 197,158 L 207,155 L 215,155 L 216,154 L 244,153 L 245,154 L 265,155 L 269,157 L 280,158 L 284,160 L 286,162 L 279,170 L 279,174 L 278,175 L 279,183 L 287,197 L 297,206 L 309,213 L 315,214 L 319,216 L 330,216 L 336,214 L 345,203 L 350,210 L 356,226 L 357,234 L 359,238 L 361,254 L 362,255 L 362,272 L 363,273 L 362,298 L 371,313 L 371,316 L 373,320 L 373,325 L 375,330 L 375,340 L 370,357 L 366,363 L 357,371 L 347,375 L 336,377 L 329,387 L 317,398 L 315,396 L 316,392 L 315,369 L 304,344 L 293,328 L 274,309 L 265,302 L 261,290 L 256,280 L 252,266 L 247,256 L 243,252 L 232,251 L 223,260 L 207,301 L 196,310 L 180,326 L 167,345 L 161,357 L 156,374 L 156,379 L 155,380 L 155,392 L 156,395 L 154,397 L 142,386 L 135,377 L 130,375 L 124,375 L 111,368 L 104,360 L 100,352 L 97,342 L 98,323 L 102,310 L 107,303 L 110,295 L 110,290 L 109,289 L 109,262 L 110,261 L 110,251 L 112,245 L 113,235 L 115,232 L 116,225 L 118,222 L 121,212 L 124,206 Z M 438,150 L 437,152 L 441,160 L 441,163 L 447,178 L 449,190 L 453,191 L 459,185 L 462,179 L 463,175 L 462,165 L 459,159 L 453,153 L 446,150 Z M 440,150 L 445,150 L 451,152 L 458,158 L 462,166 L 462,171 L 463,172 L 462,178 L 458,186 L 453,191 L 451,191 L 449,189 L 447,178 L 440,157 L 438,154 L 438,152 Z M 34,150 L 27,150 L 19,153 L 13,159 L 9,170 L 9,176 L 12,184 L 20,192 L 23,190 L 26,174 L 35,152 Z M 32,150 L 34,152 L 34,154 L 26,174 L 25,181 L 23,185 L 23,189 L 21,191 L 19,191 L 11,182 L 9,175 L 10,166 L 12,161 L 17,155 L 24,151 Z M 351,56 L 350,58 L 351,60 L 371,72 L 385,83 L 387,82 L 388,70 L 385,62 L 381,57 L 371,52 L 360,52 Z M 351,57 L 353,55 L 360,52 L 370,52 L 378,55 L 386,64 L 388,71 L 388,79 L 385,82 L 383,82 L 370,71 L 353,61 L 351,59 Z M 121,57 L 113,52 L 100,52 L 91,57 L 87,62 L 84,69 L 84,80 L 85,82 L 88,83 L 104,70 L 120,60 Z M 121,58 L 118,61 L 105,69 L 87,83 L 84,79 L 85,66 L 87,62 L 94,55 L 101,52 L 112,52 L 117,54 Z M 44,160 L 36,182 L 36,186 L 34,191 L 33,201 L 31,207 L 30,240 L 31,241 L 32,260 L 40,290 L 55,322 L 63,329 L 72,333 L 80,334 L 81,335 L 84,334 L 86,317 L 90,306 L 96,296 L 96,263 L 97,262 L 98,245 L 99,244 L 101,230 L 108,210 L 115,196 L 121,187 L 120,178 L 118,175 L 115,162 L 115,155 L 114,154 L 114,142 L 113,141 L 114,113 L 120,98 L 126,92 L 129,91 L 137,91 L 144,97 L 151,117 L 158,130 L 166,142 L 174,150 L 179,148 L 183,148 L 190,145 L 195,145 L 196,144 L 201,144 L 214,141 L 227,141 L 228,140 L 266,142 L 277,145 L 282,145 L 285,147 L 298,150 L 300,149 L 309,137 L 317,124 L 317,122 L 323,112 L 328,97 L 333,92 L 336,91 L 346,92 L 353,99 L 355,103 L 359,119 L 359,147 L 357,155 L 357,162 L 355,167 L 354,175 L 352,178 L 351,187 L 355,192 L 363,207 L 370,226 L 370,230 L 372,234 L 374,252 L 375,253 L 375,262 L 376,263 L 376,296 L 384,311 L 386,317 L 387,326 L 388,327 L 387,331 L 388,334 L 395,334 L 405,331 L 412,327 L 417,322 L 421,315 L 421,313 L 423,311 L 427,300 L 429,298 L 430,293 L 432,290 L 432,287 L 434,284 L 440,260 L 440,252 L 441,251 L 441,238 L 442,237 L 441,211 L 440,210 L 440,202 L 438,197 L 438,191 L 436,187 L 436,182 L 430,165 L 418,140 L 408,125 L 395,109 L 366,83 L 348,71 L 339,66 L 337,66 L 333,63 L 331,63 L 317,56 L 299,50 L 295,50 L 292,48 L 288,48 L 278,45 L 273,45 L 267,43 L 259,43 L 258,42 L 239,42 L 238,41 L 214,42 L 213,43 L 203,43 L 193,46 L 184,47 L 180,49 L 176,49 L 170,52 L 167,52 L 150,59 L 145,60 L 121,73 L 101,87 L 88,98 L 77,109 L 62,128 L 53,142 Z M 46,157 L 52,145 L 65,125 L 77,110 L 89,98 L 110,81 L 134,66 L 146,60 L 149,60 L 154,57 L 157,57 L 160,55 L 178,49 L 183,49 L 186,47 L 196,46 L 206,43 L 220,43 L 221,42 L 264,43 L 269,45 L 275,45 L 285,48 L 290,48 L 293,50 L 297,50 L 310,55 L 313,55 L 345,70 L 374,90 L 395,110 L 418,141 L 428,162 L 436,184 L 436,189 L 438,194 L 438,200 L 440,206 L 440,216 L 441,217 L 440,255 L 439,256 L 437,271 L 435,275 L 431,291 L 417,321 L 411,327 L 406,330 L 397,333 L 390,334 L 388,332 L 388,323 L 386,315 L 382,305 L 376,295 L 376,290 L 377,289 L 377,267 L 376,266 L 375,247 L 373,242 L 373,237 L 370,227 L 370,223 L 363,208 L 363,206 L 352,187 L 352,180 L 355,174 L 355,170 L 357,165 L 357,159 L 358,158 L 358,152 L 359,151 L 359,134 L 360,133 L 359,129 L 359,115 L 356,104 L 352,96 L 345,91 L 341,90 L 334,91 L 328,96 L 322,113 L 320,115 L 320,117 L 318,119 L 314,128 L 303,144 L 298,149 L 294,149 L 284,145 L 275,144 L 270,142 L 261,142 L 260,141 L 253,141 L 252,140 L 217,140 L 211,142 L 203,142 L 193,145 L 188,145 L 177,149 L 173,149 L 166,141 L 158,129 L 149,111 L 147,103 L 143,94 L 135,90 L 129,90 L 125,92 L 119,98 L 117,102 L 113,117 L 113,148 L 114,149 L 114,158 L 115,159 L 115,166 L 117,170 L 117,174 L 121,186 L 108,208 L 103,221 L 103,224 L 101,227 L 101,231 L 98,242 L 97,256 L 96,257 L 96,265 L 95,266 L 95,288 L 96,289 L 96,294 L 87,312 L 84,323 L 84,332 L 82,334 L 78,334 L 68,331 L 61,327 L 55,321 L 43,296 L 42,291 L 40,289 L 40,286 L 37,279 L 35,267 L 33,262 L 33,257 L 31,250 L 31,211 L 33,205 L 34,194 L 36,189 L 36,184 Z M 214,26 L 215,30 L 257,30 L 258,29 L 258,26 L 255,20 L 248,13 L 240,10 L 232,10 L 224,13 L 217,20 Z M 214,28 L 216,22 L 223,14 L 233,10 L 240,10 L 249,14 L 254,19 L 258,27 L 255,30 L 247,30 L 246,29 L 216,30 Z" fill="#52684c" stroke="#222" fill-rule="evenodd" stroke-width="4" stroke-linejoin="round" />
<path d="M 170,378 L 170,391 L 171,395 L 175,403 L 183,412 L 187,415 L 209,426 L 211,426 L 213,428 L 233,435 L 239,435 L 247,433 L 250,431 L 253,431 L 255,429 L 266,425 L 268,423 L 272,422 L 274,420 L 276,420 L 288,413 L 297,403 L 300,396 L 301,388 L 302,387 L 299,368 L 297,365 L 296,360 L 294,358 L 294,356 L 284,340 L 273,327 L 270,325 L 260,335 L 252,339 L 241,342 L 232,342 L 220,339 L 212,335 L 202,325 L 196,330 L 180,351 Z M 262,347 L 269,347 L 276,355 L 275,366 L 268,372 L 260,371 L 256,367 L 254,362 L 254,357 L 256,352 Z M 203,347 L 210,347 L 216,352 L 218,357 L 218,363 L 216,367 L 211,372 L 203,372 L 197,366 L 196,363 L 196,355 Z M 448,288 L 446,289 L 446,292 L 444,295 L 440,308 L 434,319 L 435,322 L 445,319 L 451,312 L 453,305 L 453,300 L 451,293 Z M 24,288 L 20,294 L 20,299 L 19,300 L 20,310 L 22,314 L 27,319 L 31,321 L 38,322 L 39,321 L 29,301 L 26,289 Z M 235,267 L 228,283 L 228,286 L 225,291 L 222,302 L 219,307 L 217,313 L 217,319 L 221,323 L 225,325 L 233,327 L 240,327 L 253,322 L 255,320 L 256,316 L 249,300 L 249,297 L 247,294 L 244,284 L 241,279 L 241,276 L 239,273 L 238,268 Z M 236,268 L 239,271 L 239,274 L 247,292 L 247,295 L 256,317 L 251,323 L 240,327 L 234,327 L 233,326 L 225,325 L 217,319 L 217,313 L 225,294 L 225,291 L 228,286 L 231,276 Z M 440,152 L 446,169 L 446,172 L 448,175 L 451,189 L 453,189 L 458,183 L 461,175 L 461,170 L 459,163 L 455,157 L 451,154 L 446,152 Z M 32,152 L 26,152 L 21,154 L 16,158 L 13,163 L 11,171 L 11,176 L 13,182 L 19,189 L 21,189 L 24,174 L 28,166 L 28,163 L 31,157 Z M 341,106 L 339,106 L 334,120 L 327,134 L 319,146 L 293,175 L 293,180 L 295,184 L 305,195 L 321,202 L 327,202 L 332,195 L 338,181 L 338,178 L 341,172 L 342,164 L 344,159 L 344,150 L 346,142 L 346,126 L 345,125 L 345,117 Z M 340,107 L 343,110 L 343,114 L 345,118 L 345,125 L 346,126 L 346,140 L 345,141 L 345,148 L 344,149 L 344,159 L 342,163 L 341,172 L 339,175 L 338,181 L 330,198 L 326,202 L 322,202 L 315,200 L 303,193 L 296,185 L 293,179 L 293,175 L 306,162 L 320,145 L 330,129 L 331,125 L 336,116 L 337,111 Z M 131,106 L 128,112 L 127,128 L 126,129 L 128,160 L 131,169 L 131,173 L 133,176 L 134,182 L 137,187 L 140,196 L 143,201 L 151,202 L 162,198 L 168,194 L 177,184 L 179,175 L 168,164 L 153,146 L 145,134 L 136,116 L 133,107 Z M 132,107 L 134,109 L 134,112 L 136,114 L 136,116 L 143,131 L 152,145 L 164,160 L 179,176 L 176,185 L 165,196 L 151,202 L 145,202 L 142,199 L 134,181 L 128,159 L 127,136 L 126,135 L 127,133 L 127,120 L 128,119 L 129,110 Z M 353,57 L 353,59 L 367,67 L 383,80 L 386,79 L 385,66 L 378,57 L 371,54 L 359,54 Z M 119,58 L 112,54 L 101,54 L 94,57 L 89,62 L 86,69 L 86,79 L 87,81 L 105,67 Z M 216,26 L 216,28 L 255,28 L 256,27 L 254,22 L 249,16 L 240,12 L 232,12 L 226,14 L 220,19 Z" fill="#d8c29a" stroke="#222" fill-rule="evenodd" stroke-width="4" stroke-linejoin="round" />
<path d="M 262,350 L 258,354 L 257,362 L 258,365 L 262,369 L 268,369 L 272,365 L 273,356 L 270,351 Z M 263,350 L 268,350 L 272,354 L 273,358 L 272,365 L 268,369 L 261,368 L 257,362 L 258,355 Z M 204,350 L 201,352 L 199,356 L 199,363 L 201,367 L 204,369 L 210,369 L 214,365 L 215,357 L 214,354 L 210,350 Z M 204,350 L 211,351 L 215,358 L 215,362 L 213,366 L 209,369 L 203,368 L 200,365 L 199,362 L 200,354 Z M 168,373 L 167,391 L 168,392 L 168,396 L 175,408 L 182,415 L 188,419 L 217,433 L 222,434 L 225,436 L 229,436 L 232,438 L 239,438 L 244,436 L 248,436 L 286,418 L 300,404 L 304,393 L 304,374 L 299,359 L 287,339 L 278,328 L 270,321 L 268,321 L 266,325 L 256,334 L 244,338 L 228,338 L 227,337 L 223,337 L 213,332 L 206,325 L 204,321 L 200,322 L 187,336 L 177,350 Z M 168,373 L 170,370 L 170,367 L 172,364 L 173,359 L 178,349 L 190,333 L 201,322 L 203,321 L 210,330 L 222,337 L 239,339 L 240,338 L 249,337 L 258,333 L 269,321 L 285,337 L 294,350 L 299,360 L 304,375 L 304,393 L 299,405 L 284,419 L 282,419 L 278,422 L 266,428 L 264,428 L 262,430 L 247,436 L 239,438 L 233,438 L 229,436 L 225,436 L 215,431 L 213,431 L 185,417 L 173,405 L 169,398 L 167,390 Z M 448,284 L 446,284 L 444,286 L 441,297 L 435,312 L 430,320 L 430,323 L 432,325 L 441,324 L 447,321 L 453,315 L 455,310 L 456,297 L 452,288 Z M 449,285 L 453,290 L 456,298 L 455,310 L 452,316 L 447,321 L 437,325 L 433,325 L 430,321 L 437,308 L 444,287 L 446,285 Z M 25,284 L 18,291 L 16,298 L 16,306 L 18,310 L 18,313 L 26,322 L 34,325 L 41,325 L 42,324 L 42,320 L 34,305 L 31,295 L 29,292 L 28,286 Z M 24,285 L 26,285 L 28,287 L 31,298 L 34,303 L 37,312 L 42,320 L 42,323 L 40,325 L 34,325 L 25,321 L 18,312 L 16,305 L 16,299 L 19,290 Z M 300,255 L 295,259 L 289,271 L 289,282 L 292,289 L 299,296 L 304,299 L 318,300 L 324,298 L 333,290 L 336,285 L 337,272 L 334,263 L 329,257 L 318,252 L 308,252 Z M 309,252 L 317,252 L 327,256 L 333,262 L 336,268 L 336,283 L 333,289 L 325,297 L 321,299 L 309,300 L 303,298 L 294,291 L 289,280 L 289,272 L 294,261 L 301,255 Z M 143,257 L 137,265 L 135,272 L 136,284 L 140,291 L 145,296 L 151,299 L 155,300 L 168,299 L 178,292 L 182,285 L 183,271 L 181,265 L 176,258 L 168,253 L 165,252 L 153,252 Z M 155,252 L 164,252 L 171,255 L 179,262 L 182,269 L 183,279 L 181,286 L 176,293 L 167,299 L 152,299 L 146,296 L 139,289 L 136,283 L 136,269 L 140,261 L 147,255 Z M 126,200 L 124,202 L 117,217 L 109,245 L 109,254 L 107,262 L 107,298 L 100,310 L 97,319 L 96,330 L 95,331 L 95,342 L 100,357 L 108,368 L 117,374 L 133,378 L 157,402 L 160,400 L 157,391 L 157,379 L 163,357 L 165,355 L 168,347 L 180,329 L 201,308 L 208,303 L 224,262 L 232,253 L 236,252 L 242,254 L 246,258 L 264,304 L 270,308 L 289,326 L 302,344 L 311,363 L 312,370 L 314,373 L 314,392 L 312,397 L 312,401 L 313,402 L 318,400 L 333,385 L 338,378 L 347,377 L 359,372 L 366,366 L 371,359 L 371,357 L 374,352 L 374,349 L 376,346 L 376,325 L 372,311 L 364,297 L 364,291 L 365,290 L 365,265 L 363,258 L 363,248 L 360,240 L 360,234 L 357,226 L 357,223 L 355,220 L 355,217 L 348,202 L 346,200 L 342,201 L 338,209 L 335,212 L 329,214 L 320,214 L 312,212 L 305,209 L 295,202 L 287,194 L 280,180 L 280,172 L 289,161 L 287,159 L 283,157 L 274,156 L 270,154 L 256,153 L 255,152 L 243,152 L 242,151 L 216,152 L 215,153 L 201,154 L 197,156 L 192,156 L 183,160 L 183,162 L 191,172 L 191,182 L 190,185 L 184,195 L 172,206 L 158,213 L 141,214 L 138,213 L 133,208 L 129,200 Z M 127,200 L 130,202 L 133,209 L 137,213 L 144,215 L 159,213 L 168,209 L 177,203 L 184,196 L 191,183 L 192,174 L 190,169 L 184,162 L 187,158 L 199,156 L 204,154 L 220,153 L 221,152 L 250,152 L 251,153 L 268,154 L 272,156 L 277,156 L 286,159 L 288,162 L 282,168 L 280,172 L 280,182 L 288,196 L 298,205 L 311,212 L 327,215 L 336,212 L 341,204 L 345,200 L 348,203 L 352,211 L 355,221 L 357,224 L 360,236 L 360,241 L 363,251 L 363,260 L 364,261 L 364,298 L 372,312 L 376,327 L 376,344 L 371,358 L 367,364 L 358,372 L 349,376 L 340,377 L 336,379 L 330,388 L 321,397 L 314,401 L 312,399 L 315,389 L 314,372 L 311,365 L 311,362 L 303,345 L 292,329 L 272,309 L 264,303 L 259,289 L 256,284 L 249,263 L 245,256 L 239,252 L 234,252 L 230,254 L 224,261 L 208,302 L 197,311 L 182,326 L 168,346 L 163,356 L 157,377 L 157,393 L 159,399 L 157,401 L 155,400 L 141,387 L 134,378 L 120,375 L 114,372 L 105,364 L 98,351 L 95,338 L 97,320 L 99,317 L 100,311 L 108,297 L 107,268 L 108,267 L 108,257 L 109,256 L 109,247 L 111,242 L 111,237 L 119,213 L 124,203 Z M 437,149 L 436,152 L 443,169 L 443,172 L 448,186 L 448,190 L 450,193 L 452,193 L 461,184 L 464,176 L 464,168 L 462,162 L 459,157 L 452,151 L 447,149 Z M 438,149 L 446,149 L 453,152 L 460,159 L 463,165 L 464,169 L 463,179 L 460,185 L 453,192 L 450,192 L 448,190 L 446,178 L 440,163 L 440,160 L 436,152 Z M 35,149 L 26,149 L 19,152 L 13,157 L 10,162 L 8,169 L 8,177 L 12,186 L 20,193 L 22,193 L 24,191 L 24,186 L 26,183 L 27,175 L 33,161 L 33,158 L 36,153 Z M 34,149 L 36,152 L 27,174 L 24,190 L 20,193 L 14,188 L 10,182 L 8,176 L 9,166 L 12,159 L 19,152 L 27,149 Z M 122,56 L 113,51 L 100,51 L 93,54 L 87,60 L 83,68 L 83,80 L 85,84 L 90,83 L 110,67 L 122,60 Z M 122,57 L 122,59 L 120,61 L 104,71 L 88,84 L 86,84 L 83,80 L 83,69 L 88,59 L 94,54 L 100,51 L 113,51 L 116,52 Z M 349,57 L 349,59 L 352,62 L 365,69 L 376,77 L 382,83 L 386,84 L 389,80 L 389,69 L 387,63 L 379,54 L 377,54 L 372,51 L 364,50 L 363,51 L 355,52 Z M 349,58 L 354,53 L 360,51 L 371,51 L 378,54 L 384,59 L 387,64 L 389,70 L 389,79 L 385,84 L 371,73 L 353,62 Z M 43,159 L 40,169 L 38,171 L 37,177 L 35,180 L 35,185 L 33,189 L 32,199 L 30,204 L 30,214 L 29,215 L 30,256 L 31,257 L 32,267 L 34,271 L 34,275 L 39,291 L 53,321 L 62,330 L 71,334 L 74,334 L 78,336 L 84,336 L 86,333 L 86,322 L 88,318 L 88,315 L 98,294 L 97,267 L 98,266 L 99,248 L 101,242 L 102,231 L 109,211 L 123,186 L 121,181 L 121,177 L 118,170 L 117,160 L 116,159 L 116,152 L 115,151 L 115,138 L 114,137 L 115,115 L 120,100 L 127,93 L 130,92 L 136,92 L 142,96 L 147,111 L 156,129 L 167,145 L 173,151 L 178,151 L 181,149 L 188,148 L 192,146 L 204,145 L 209,143 L 216,143 L 217,142 L 265,143 L 273,146 L 281,146 L 284,148 L 291,149 L 294,151 L 299,151 L 304,146 L 315,130 L 324,113 L 329,98 L 334,93 L 337,92 L 345,93 L 351,98 L 352,102 L 354,104 L 355,111 L 357,115 L 357,121 L 358,122 L 358,144 L 356,152 L 356,160 L 354,165 L 354,170 L 351,177 L 351,181 L 349,185 L 362,208 L 369,227 L 373,255 L 374,256 L 374,266 L 375,267 L 375,288 L 374,289 L 374,294 L 385,318 L 386,334 L 388,336 L 393,336 L 401,334 L 410,330 L 417,324 L 430,299 L 431,294 L 433,291 L 433,288 L 436,282 L 441,262 L 442,244 L 443,243 L 442,208 L 441,207 L 441,200 L 439,195 L 439,189 L 437,185 L 437,181 L 428,157 L 426,155 L 426,153 L 419,139 L 401,114 L 392,104 L 372,86 L 347,69 L 316,54 L 313,54 L 300,49 L 289,47 L 285,45 L 275,44 L 263,41 L 247,41 L 246,40 L 222,40 L 221,41 L 200,42 L 192,45 L 186,45 L 179,48 L 175,48 L 169,51 L 165,51 L 162,53 L 157,54 L 149,58 L 144,59 L 117,74 L 104,83 L 85,99 L 77,107 L 64,123 L 52,141 L 45,155 L 45,157 Z M 43,160 L 52,142 L 61,128 L 76,109 L 88,97 L 109,80 L 131,66 L 145,59 L 150,58 L 167,51 L 170,51 L 176,48 L 180,48 L 184,46 L 193,45 L 203,42 L 213,42 L 214,41 L 229,41 L 230,40 L 258,41 L 259,42 L 267,42 L 273,44 L 278,44 L 288,47 L 292,47 L 295,49 L 299,49 L 317,55 L 331,62 L 333,62 L 337,65 L 339,65 L 348,70 L 366,82 L 396,109 L 409,125 L 419,140 L 434,173 L 437,182 L 437,187 L 439,191 L 439,197 L 441,202 L 442,222 L 443,223 L 442,251 L 441,252 L 441,260 L 435,284 L 433,287 L 433,290 L 431,293 L 430,298 L 428,300 L 428,302 L 424,309 L 424,311 L 422,313 L 421,317 L 418,322 L 412,328 L 405,332 L 395,335 L 389,335 L 386,331 L 387,327 L 386,326 L 385,317 L 383,311 L 375,296 L 375,263 L 374,262 L 374,253 L 371,240 L 371,234 L 362,207 L 354,192 L 350,187 L 351,178 L 353,175 L 354,167 L 356,162 L 356,155 L 358,147 L 358,119 L 354,103 L 350,96 L 346,93 L 336,92 L 333,93 L 329,97 L 324,112 L 318,122 L 318,124 L 310,137 L 298,151 L 285,148 L 282,146 L 277,146 L 266,143 L 243,142 L 242,141 L 228,141 L 227,142 L 207,143 L 201,145 L 190,146 L 183,149 L 179,149 L 174,151 L 165,142 L 157,130 L 150,117 L 143,97 L 137,92 L 129,92 L 126,93 L 121,98 L 115,113 L 115,120 L 114,121 L 115,154 L 116,155 L 117,167 L 119,175 L 121,178 L 122,187 L 116,196 L 109,210 L 102,230 L 102,234 L 99,245 L 98,262 L 97,263 L 97,296 L 91,306 L 87,317 L 85,333 L 82,336 L 72,334 L 63,330 L 54,322 L 39,290 L 31,260 L 30,241 L 29,240 L 30,207 L 31,206 L 35,182 Z M 213,25 L 213,30 L 214,31 L 258,31 L 259,30 L 259,26 L 255,18 L 247,11 L 241,9 L 231,9 L 225,11 L 217,18 Z M 213,26 L 216,20 L 224,12 L 232,9 L 240,9 L 248,12 L 256,20 L 259,26 L 259,29 L 257,31 L 215,31 L 213,29 Z" fill="#293225" stroke="#222" fill-rule="evenodd" stroke-width="4" stroke-linejoin="round" />
<path d="M 169,373 L 169,377 L 168,378 L 169,395 L 172,402 L 181,413 L 188,418 L 190,418 L 192,420 L 194,420 L 196,422 L 200,423 L 217,432 L 220,432 L 223,434 L 234,437 L 250,434 L 284,418 L 290,414 L 296,408 L 301,399 L 303,392 L 303,376 L 296,355 L 282,334 L 271,322 L 270,323 L 268,322 L 267,325 L 256,335 L 249,338 L 241,339 L 240,340 L 231,340 L 220,337 L 213,333 L 205,325 L 204,322 L 203,323 L 201,322 L 182,344 L 174,359 L 171,367 L 171,370 Z" fill="none" stroke="#222" stroke-width="4" stroke-linejoin="round" stroke-linecap="round" />
<path d="M 23,286 L 18,295 L 18,301 L 17,302 L 18,303 L 19,312 L 21,316 L 28,322 L 31,322 L 34,324 L 40,324 L 41,320 L 33,306 L 33,303 L 28,293 L 28,289 L 26,286 Z" fill="none" stroke="#222" stroke-width="4" stroke-linejoin="round" stroke-linecap="round" />
<path d="M 447,285 L 445,286 L 441,300 L 431,321 L 434,324 L 440,323 L 447,320 L 451,316 L 454,310 L 455,306 L 454,294 L 450,287 Z" fill="none" stroke="#222" stroke-width="4" stroke-linejoin="round" stroke-linecap="round" />
<path d="M 235,264 L 228,280 L 227,285 L 224,290 L 224,293 L 217,309 L 215,317 L 216,320 L 222,325 L 232,328 L 241,328 L 245,326 L 248,326 L 255,322 L 257,318 L 257,315 L 250,299 L 250,296 L 248,293 L 247,288 L 242,278 L 241,273 L 239,270 L 239,267 L 237,264 L 236,265 Z" fill="none" stroke="#222" stroke-width="4" stroke-linejoin="round" stroke-linecap="round" />
<path d="M 311,251 L 303,253 L 294,259 L 288,272 L 288,280 L 291,289 L 296,295 L 305,300 L 316,301 L 324,299 L 334,290 L 337,283 L 337,269 L 333,260 L 326,254 L 321,252 Z" fill="none" stroke="#222" stroke-width="4" stroke-linejoin="round" stroke-linecap="round" />
<path d="M 148,253 L 141,258 L 135,269 L 135,282 L 138,290 L 145,297 L 152,300 L 166,300 L 173,297 L 179,292 L 183,283 L 184,275 L 181,263 L 176,257 L 170,253 L 164,251 L 155,251 Z" fill="none" stroke="#222" stroke-width="4" stroke-linejoin="round" stroke-linecap="round" />
<path d="M 126,200 L 120,212 L 112,235 L 112,240 L 109,253 L 108,273 L 107,274 L 108,298 L 101,310 L 97,322 L 96,341 L 99,353 L 104,362 L 116,373 L 134,378 L 143,389 L 156,401 L 143,388 L 135,378 L 119,374 L 109,367 L 103,360 L 98,350 L 97,342 L 96,341 L 96,330 L 97,329 L 97,322 L 100,313 L 108,299 L 107,274 L 108,273 L 109,253 L 110,252 L 112,235 L 121,210 L 127,201 L 129,202 L 132,209 L 136,213 L 141,215 L 152,215 L 153,214 L 161,213 L 177,204 L 187,193 L 192,181 L 192,171 L 189,166 L 184,161 L 186,159 L 202,155 L 216,154 L 217,153 L 227,153 L 228,152 L 244,152 L 245,153 L 264,154 L 274,157 L 279,157 L 287,161 L 282,167 L 279,173 L 280,183 L 283,190 L 288,197 L 298,206 L 312,213 L 320,215 L 329,215 L 336,213 L 339,210 L 344,201 L 347,203 L 351,210 L 357,226 L 357,230 L 360,239 L 360,244 L 362,249 L 362,258 L 363,259 L 363,268 L 364,269 L 363,297 L 372,314 L 374,320 L 375,331 L 376,332 L 375,345 L 369,360 L 361,369 L 353,374 L 336,378 L 327,390 L 314,402 L 312,399 L 315,392 L 315,375 L 311,360 L 309,358 L 309,355 L 305,347 L 296,333 L 287,322 L 272,308 L 265,303 L 254,277 L 249,261 L 243,253 L 236,251 L 230,253 L 225,258 L 215,281 L 208,301 L 198,309 L 181,326 L 170,341 L 162,357 L 159,366 L 159,370 L 157,374 L 156,391 L 159,398 L 158,399 L 159,398 L 156,391 L 156,379 L 159,370 L 159,366 L 164,353 L 166,351 L 170,342 L 181,327 L 199,309 L 207,303 L 212,289 L 214,287 L 214,284 L 216,281 L 219,271 L 221,269 L 225,259 L 231,253 L 236,251 L 242,253 L 249,262 L 265,304 L 271,308 L 287,323 L 296,334 L 305,348 L 312,363 L 315,375 L 315,392 L 312,401 L 315,402 L 322,396 L 337,378 L 342,376 L 347,376 L 359,371 L 369,361 L 373,353 L 375,345 L 376,332 L 375,331 L 374,320 L 371,311 L 363,297 L 364,269 L 363,268 L 362,249 L 360,244 L 360,239 L 357,230 L 356,222 L 354,219 L 353,214 L 346,200 L 343,201 L 339,209 L 335,213 L 329,215 L 320,215 L 307,211 L 295,203 L 287,195 L 279,180 L 279,173 L 282,168 L 288,163 L 287,162 L 288,160 L 264,154 L 253,154 L 252,153 L 245,153 L 244,152 L 217,153 L 216,154 L 208,154 L 197,157 L 192,157 L 184,160 L 184,163 L 189,167 L 192,172 L 192,181 L 190,187 L 185,195 L 176,204 L 167,210 L 152,215 L 141,215 L 138,214 L 132,208 L 129,201 Z" fill="none" stroke="#222" stroke-width="4" stroke-linejoin="round" stroke-linecap="round" />
<path d="M 34,150 L 23,151 L 19,153 L 12,160 L 9,171 L 9,176 L 12,184 L 19,192 L 21,191 L 22,192 L 23,190 L 26,174 L 35,152 Z" fill="none" stroke="#222" stroke-width="4" stroke-linejoin="round" stroke-linecap="round" />
<path d="M 341,103 L 338,104 L 333,119 L 326,133 L 316,148 L 292,174 L 292,180 L 297,189 L 306,197 L 321,203 L 329,202 L 333,196 L 333,194 L 336,190 L 337,185 L 339,182 L 339,179 L 342,173 L 342,169 L 345,160 L 345,151 L 347,143 L 347,125 L 346,124 L 346,117 L 344,109 Z" fill="none" stroke="#222" stroke-width="4" stroke-linejoin="round" stroke-linecap="round" />
<path d="M 131,103 L 127,112 L 127,118 L 125,126 L 125,141 L 126,142 L 127,160 L 130,173 L 139,197 L 143,202 L 151,203 L 160,200 L 170,194 L 177,186 L 180,179 L 180,174 L 166,160 L 151,141 L 141,124 L 141,122 L 136,113 L 133,103 L 132,104 Z" fill="none" stroke="#222" stroke-width="4" stroke-linejoin="round" stroke-linecap="round" />
<path d="M 350,57 L 351,60 L 365,68 L 381,81 L 386,83 L 387,82 L 388,70 L 386,66 L 386,63 L 380,56 L 371,52 L 360,52 L 354,54 Z" fill="none" stroke="#222" stroke-width="4" stroke-linejoin="round" stroke-linecap="round" />
<path d="M 122,57 L 116,53 L 112,52 L 101,52 L 92,56 L 86,63 L 84,69 L 84,79 L 85,82 L 89,83 L 95,77 L 107,68 L 122,59 L 121,58 Z" fill="none" stroke="#222" stroke-width="4" stroke-linejoin="round" stroke-linecap="round" />
<path d="M 46,154 L 41,169 L 38,174 L 38,177 L 33,193 L 32,204 L 31,205 L 31,211 L 30,212 L 30,247 L 31,248 L 31,256 L 37,282 L 39,285 L 40,291 L 43,296 L 48,310 L 55,323 L 62,329 L 68,332 L 79,335 L 84,334 L 87,315 L 91,305 L 96,297 L 97,293 L 96,289 L 96,267 L 97,266 L 98,248 L 99,247 L 99,241 L 101,236 L 101,232 L 108,211 L 111,207 L 115,197 L 121,188 L 121,181 L 118,174 L 118,170 L 115,159 L 115,152 L 114,151 L 114,137 L 113,136 L 114,135 L 113,132 L 114,129 L 114,116 L 117,104 L 120,99 L 126,93 L 130,91 L 138,92 L 143,97 L 146,103 L 146,106 L 149,111 L 149,114 L 161,136 L 172,150 L 178,150 L 180,148 L 184,148 L 192,145 L 198,145 L 203,143 L 218,142 L 219,141 L 263,142 L 264,143 L 270,143 L 274,145 L 280,145 L 295,150 L 299,150 L 304,145 L 317,125 L 325,108 L 328,98 L 334,92 L 338,92 L 339,91 L 346,93 L 351,97 L 355,104 L 358,115 L 358,125 L 359,126 L 358,153 L 357,154 L 356,165 L 350,185 L 365,213 L 367,221 L 369,224 L 372,236 L 372,244 L 375,255 L 375,270 L 376,271 L 375,294 L 385,315 L 387,323 L 387,332 L 388,334 L 392,335 L 393,334 L 402,333 L 413,327 L 419,320 L 432,291 L 437,275 L 438,267 L 440,262 L 440,256 L 441,255 L 442,219 L 441,218 L 441,205 L 439,200 L 439,194 L 436,185 L 436,181 L 434,178 L 433,172 L 425,152 L 418,139 L 408,124 L 387,100 L 372,87 L 352,73 L 342,67 L 316,55 L 313,55 L 290,47 L 285,47 L 281,45 L 274,45 L 263,42 L 223,41 L 222,42 L 201,43 L 191,46 L 186,46 L 179,49 L 175,49 L 157,55 L 154,57 L 151,57 L 149,59 L 144,60 L 120,73 L 100,87 L 86,99 L 64,124 Z" fill="none" stroke="#222" stroke-width="4" stroke-linejoin="round" stroke-linecap="round" />
<path d="M 214,25 L 214,29 L 215,30 L 228,30 L 229,29 L 258,30 L 257,23 L 253,17 L 248,13 L 240,10 L 232,10 L 224,13 L 219,17 Z" fill="none" stroke="#222" stroke-width="4" stroke-linejoin="round" stroke-linecap="round" />
</svg>