<svg xmlns="http://www.w3.org/2000/svg" viewBox="0 0 120 120">
  <rect width="120" height="120" rx="60" fill="#e0f0ff"/>
  <path d="M24 74c0-18 14-40 36-46 20-4 40 4 52 18-4 18-16 34-32 40-18 6-40 4-56-12z" fill="#6fa8dc" stroke="#2b5d8f" stroke-width="4" stroke-linejoin="round"/>
  <path d="M44 58c-6-12-18-18-26-16 0 10 4 20 12 28" fill="#8cb9e3" stroke="#2b5d8f" stroke-width="4" stroke-linejoin="round"/>
  <circle cx="70" cy="60" r="6" fill="#1b1b1b"/>
  <path d="M54 80c8 8 18 8 26 0" fill="none" stroke="#1b1b1b" stroke-width="4" stroke-linecap="round"/>
  <path d="M44 68l-8 12" fill="none" stroke="#ffffff" stroke-width="5" stroke-linecap="round"/>
  <path d="M52 64l-6 14" fill="none" stroke="#ffffff" stroke-width="5" stroke-linecap="round"/>
  <path d="M62 60l-2 14" fill="none" stroke="#ffffff" stroke-width="5" stroke-linecap="round"/>
</svg>
