<svg xmlns="http://www.w3.org/2000/svg" viewBox="0 0 120 120">
  <circle cx="60" cy="60" r="56" fill="#e6f2ff" stroke="#2d4f73" stroke-width="4"/>
  <path d="M28 82c-4-24 12-54 40-58 18-2 34 6 44 18-4 20-16 34-28 40 6 4 10 10 10 14-16 10-40 14-58 6-8-4-12-12-8-20z" fill="#5c9dd6" stroke="#2d4f73" stroke-width="4" stroke-linejoin="round"/>
  <path d="M46 62c-8-16-22-24-32-22 0 12 4 24 14 34" fill="#78b4e6" stroke="#2d4f73" stroke-width="4" stroke-linejoin="round"/>
  <path d="M52 90c-2 6 0 12 4 16" fill="none" stroke="#2d4f73" stroke-width="4" stroke-linecap="round"/>
  <path d="M70 88c6 4 14 4 20-2" fill="none" stroke="#1b1b1b" stroke-width="4" stroke-linecap="round"/>
  <circle cx="78" cy="64" r="5" fill="#1b1b1b"/>
  <path d="M58 70c-6-6-18-6-24 0" fill="none" stroke="#2d4f73" stroke-width="4" stroke-linecap="round"/>
  <path d="M44 74l-10 12" fill="none" stroke="#f7faff" stroke-width="5" stroke-linecap="round"/>
  <path d="M52 70l-8 14" fill="none" stroke="#f7faff" stroke-width="5" stroke-linecap="round"/>
  <path d="M60 66l-4 14" fill="none" stroke="#f7faff" stroke-width="5" stroke-linecap="round"/>
  <path d="M86 58l12-6" fill="none" stroke="#2d4f73" stroke-width="4" stroke-linecap="round"/>
  <path d="M90 54l6-12" fill="none" stroke="#2d4f73" stroke-width="4" stroke-linecap="round"/>
</svg>
